<svg width="20" height="20" viewBox="0 0 20 20" fill="none" xmlns="http://www.w3.org/2000/svg">
<path d="M15.2 0H4.8C3.52696 0 2.30606 0.516033 1.40589 1.43458C0.505713 2.35312 0 3.59894 0 4.89796L0 15.102C0 16.4011 0.505713 17.6469 1.40589 18.5654C2.30606 19.484 3.52696 20 4.8 20H15.2C16.473 20 17.6939 19.484 18.5941 18.5654C19.4943 17.6469 20 16.4011 20 15.102V4.89796C20 3.59894 19.4943 2.35312 18.5941 1.43458C17.6939 0.516033 16.473 0 15.2 0ZM15.88 14.5969V15.0255C15.9365 15.0192 15.9937 15.0251 16.0479 15.0426C16.1021 15.0602 16.1521 15.0891 16.1947 15.1275C16.2372 15.166 16.2715 15.213 16.2952 15.2658C16.319 15.3185 16.3317 15.3757 16.3325 15.4337V15.9167H12.0467V15.4328C12.0476 15.3748 12.0604 15.3176 12.0842 15.265C12.1081 15.2123 12.1424 15.1653 12.1851 15.1269C12.2278 15.0886 12.2778 15.0597 12.3321 15.0423C12.3863 15.0248 12.4435 15.0191 12.5 15.0255V14.5969C12.5 14.4099 12.6275 14.2551 12.7983 14.2075L12.79 10.4966C12.6583 9.01956 11.4233 7.86225 9.92083 7.86225C8.41833 7.86225 7.18333 9.01956 7.05167 10.4966L7.04333 14.2024C7.23333 14.2381 7.48667 14.3793 7.49333 14.5969V15.0255C7.54985 15.0192 7.60703 15.0251 7.66122 15.0426C7.7154 15.0602 7.76539 15.0891 7.80798 15.1275C7.85058 15.166 7.88484 15.213 7.90858 15.2658C7.93232 15.3185 7.94501 15.3757 7.94583 15.4337V15.9167H3.66V15.4328C3.66094 15.3749 3.67371 15.3178 3.6975 15.2652C3.72129 15.2126 3.75557 15.1656 3.79815 15.1273C3.84074 15.0889 3.89069 15.0601 3.94481 15.0426C3.99894 15.025 4.05605 15.0192 4.1125 15.0255V14.5969C4.1125 14.3818 4.28 14.2109 4.49083 14.1956V7.48214H4.0825L3.57417 5.7551H5.775V4.08333H14.0667V5.7551H16.4183L15.91 7.48129H15.5017V14.1956C15.7117 14.21 15.88 14.3827 15.88 14.5969Z" fill="#D0D5DD"/>
</svg>
