<svg width="1280" height="229" viewBox="0 0 1280 229" fill="none" xmlns="http://www.w3.org/2000/svg">
<path fill-rule="evenodd" clip-rule="evenodd" d="M99.1909 0H22.9253C10.264 0 0 10.264 0 22.9253V259.82C0 272.481 10.264 282.745 22.9253 282.745H99.1909C148.13 282.745 189.733 251.332 204.935 207.568C208.589 197.05 201.977 186.251 191.459 182.595L90.8618 147.634C80.6978 144.102 78.5623 130.673 87.1293 124.162C90.7422 121.416 95.4939 120.672 99.7734 122.181L180.553 150.672C195.468 155.933 211.104 144.867 211.104 129.052V111.913C211.104 50.105 160.999 0 99.1909 0Z" fill="url(#paint0_linear_235_8230)"/>
<path fill-rule="evenodd" clip-rule="evenodd" d="M501 23.0663C501 10.405 511.264 0.140991 523.925 0.140991H689.178C701.839 0.140991 712.103 10.405 712.103 23.0663V27.0488C712.103 36.3036 706.538 44.6508 697.996 48.2104L595.971 90.7223C588.524 93.8255 584.675 102.098 587.098 109.794C589.787 118.335 599.103 122.86 607.479 119.694L681.072 91.8758C696.068 86.2071 712.103 97.288 712.103 113.32V259.961C712.103 272.622 701.839 282.886 689.178 282.886H523.925C511.264 282.886 501 272.622 501 259.961V220.22C501 203.092 519.099 192.012 534.353 199.803L598.73 232.685C606.704 236.758 616.463 233.291 620.081 225.099C623.34 217.719 620.429 209.071 613.371 205.164L512.821 149.496C505.526 145.457 501 137.777 501 129.439V23.0663Z" fill="url(#paint1_linear_235_8230)"/>
<path fill-rule="evenodd" clip-rule="evenodd" d="M1068.9 23.0663C1068.9 10.405 1079.16 0.140991 1091.82 0.140991H1257.07C1269.74 0.140991 1280 10.405 1280 23.0663V27.0513C1280 36.3061 1274.43 44.6533 1265.89 48.213L1163.87 90.7223C1156.43 93.8255 1152.58 102.098 1155 109.794C1157.69 118.335 1167.01 122.86 1175.38 119.694L1248.97 91.878C1263.96 86.2094 1280 97.2903 1280 113.322V259.961C1280 272.622 1269.74 282.886 1257.07 282.886H1091.82C1079.16 282.886 1068.9 272.622 1068.9 259.961V220.219C1068.9 203.091 1087 192.012 1102.25 199.803L1166.63 232.685C1174.6 236.758 1184.36 233.291 1187.98 225.099C1191.24 217.719 1188.33 209.071 1181.27 205.164L1080.72 149.495C1073.42 145.457 1068.9 137.776 1068.9 129.439V23.0663Z" fill="url(#paint2_linear_235_8230)"/>
<path fill-rule="evenodd" clip-rule="evenodd" d="M1052.54 23.0663C1052.54 10.405 1042.28 0.140991 1029.62 0.140991H864.366C851.705 0.140991 841.441 10.405 841.441 23.0663V259.961C841.441 272.622 851.705 282.886 864.366 282.886H1029.62C1042.28 282.886 1052.54 272.622 1052.54 259.961V228.674C1052.54 214.062 1039.06 203.179 1024.78 206.267L934.804 225.717C927.429 227.312 919.994 223.285 917.299 216.237L882.2 124.43C877.512 112.167 884.059 98.4798 896.549 94.4339L1036.68 49.0383C1046.14 45.9753 1052.54 37.1681 1052.54 27.2288V23.0663Z" fill="url(#paint3_linear_235_8230)"/>
<path fill-rule="evenodd" clip-rule="evenodd" d="M773.189 62.9766C757.971 55.6797 740.352 66.7714 740.352 83.6484V259.678C740.352 272.34 750.616 282.604 763.277 282.604H790.272C802.934 282.604 813.198 272.34 813.198 259.678V96.5922C813.198 87.772 808.138 79.734 800.184 75.9205L773.189 62.9766ZM813.198 30.8473C813.198 48.0468 794.961 59.121 779.7 51.1892L750.61 36.07C744.307 32.7941 740.352 26.2816 740.352 19.1781C740.352 8.66421 748.875 0.140991 759.389 0.140991H790.272C802.934 0.140991 813.198 10.405 813.198 23.0663V30.8473Z" fill="url(#paint4_linear_235_8230)"/>
<path fill-rule="evenodd" clip-rule="evenodd" d="M362.345 0.141429L461.551 0.141859C474.687 0.141916 485.337 10.7914 485.337 23.9281L485.337 258.419C485.337 271.556 474.688 282.205 461.551 282.205H409.97C396.97 282.205 386.378 271.768 386.187 258.769L384.816 165.735C384.624 152.665 373.23 142.593 360.235 144.006C348.976 145.23 340.447 154.737 340.447 166.062V258.419C340.447 271.556 329.797 282.205 316.66 282.205H263.139C250.002 282.205 239.353 271.556 239.353 258.419L239.353 23.9277C239.353 10.7909 250.002 0.141392 263.139 0.141396L362.345 0.141429ZM363.07 111.64C372.126 111.642 386.53 111.644 386.53 102.721C386.53 93.689 371.775 78.9342 362.743 78.9342C353.712 78.9342 338.957 93.689 338.957 102.721C338.957 111.644 353.36 111.642 362.416 111.64L362.743 111.64L363.07 111.64Z" fill="url(#paint5_linear_235_8230)"/>
<defs>
<linearGradient id="paint0_linear_235_8230" x1="105.552" y1="0" x2="105.552" y2="233.883" gradientUnits="userSpaceOnUse">
<stop stop-color="#1C2533"/>
<stop offset="1" stop-color="#0C0F14"/>
</linearGradient>
<linearGradient id="paint1_linear_235_8230" x1="606.551" y1="0.140991" x2="606.551" y2="234.024" gradientUnits="userSpaceOnUse">
<stop stop-color="#1C2533"/>
<stop offset="1" stop-color="#0C0F14"/>
</linearGradient>
<linearGradient id="paint2_linear_235_8230" x1="1174.45" y1="0.140991" x2="1174.45" y2="234.024" gradientUnits="userSpaceOnUse">
<stop stop-color="#1C2533"/>
<stop offset="1" stop-color="#0C0F14"/>
</linearGradient>
<linearGradient id="paint3_linear_235_8230" x1="946.993" y1="0.140991" x2="946.993" y2="234.024" gradientUnits="userSpaceOnUse">
<stop stop-color="#1C2533"/>
<stop offset="1" stop-color="#0C0F14"/>
</linearGradient>
<linearGradient id="paint4_linear_235_8230" x1="776.775" y1="0.140991" x2="776.775" y2="233.791" gradientUnits="userSpaceOnUse">
<stop stop-color="#1C2533"/>
<stop offset="1" stop-color="#0C0F14"/>
</linearGradient>
<linearGradient id="paint5_linear_235_8230" x1="362.345" y1="0.141479" x2="362.345" y2="233.461" gradientUnits="userSpaceOnUse">
<stop stop-color="#1C2533"/>
<stop offset="1" stop-color="#0C0F14"/>
</linearGradient>
</defs>
</svg>
