<svg width="127" height="80" viewBox="0 0 127 80" fill="none" xmlns="http://www.w3.org/2000/svg">
<path fillRule="evenodd" clipRule="evenodd" d="M87.4285 21.0619C92.6342 16.7421 98.442 15.0986 104.012 15.5141C109.953 15.9573 115.451 18.7273 119.558 22.7507C123.664 26.7744 126.485 32.1562 126.937 37.9645C127.392 43.8256 125.419 49.9645 120.217 55.3518C119.741 55.8482 119.255 56.3376 118.758 56.8212C95.1631 79.9388 63.8208 80 63.5001 80H63.4986C63.3383 80 31.8965 79.9988 8.24027 56.8188L8.23519 56.8129C7.74679 56.3318 7.26585 55.8471 6.79212 55.36L6.78834 55.3553C1.58383 49.9726 -0.391154 43.8353 0.0630569 37.9741C0.513128 32.1668 3.3322 26.7844 7.43725 22.7593C11.5419 18.7345 17.0395 15.9622 22.982 15.5172C28.5516 15.1 34.3605 16.7415 39.5688 21.0592C40.1288 14.3998 43.0466 9.21682 47.282 5.65365C51.7991 1.85329 57.6857 0 63.4987 0C69.3118 0 75.1983 1.85329 79.7152 5.65365C83.951 9.21729 86.869 14.4012 87.4285 21.0619ZM64.5789 77.6565L64.5778 77.6271H64.5797L64.5789 77.6565ZM62.4187 77.6565L62.4178 77.6271H62.4197L62.4187 77.6565ZM81.2257 45.5558C80.5799 45.5558 80.3563 46.4693 80.7679 46.9532C81.4966 47.8102 81.9354 48.9129 81.9354 50.116C81.9354 52.8459 79.6774 55.0588 76.8918 55.0588C74.1056 55.0588 71.8471 52.8459 71.8471 50.116C71.8471 49.97 71.6526 49.8974 71.5647 50.0158C70.7692 51.0865 70.232 52.2885 70.0113 53.5506C69.8871 54.2612 69.2976 54.8506 68.5568 54.8506H68.1476C67.1808 54.8506 66.3832 54.082 66.5258 53.1514C67.504 46.7738 73.9187 42.1482 81.2257 42.1482C88.5321 42.1482 94.9467 46.7738 95.9249 53.1514C96.0668 54.082 95.2696 54.8506 94.3032 54.8506C93.3356 54.8506 92.5703 54.0781 92.3598 53.1596C91.4041 48.9793 86.9708 45.5558 81.2257 45.5558ZM36.4313 50.116C36.4313 49.9234 36.1765 49.82 36.0566 49.9733C35.2061 51.0607 34.6266 52.2922 34.3813 53.5901C34.2365 54.3565 33.6 54.9941 32.799 54.9941H32.4988C31.532 54.9941 30.7344 54.2259 30.8769 53.2953C31.8546 46.9142 38.27 42.2921 45.5764 42.2921C52.8827 42.2921 59.2981 46.9142 60.2758 53.2953C60.4185 54.2259 59.6208 54.9941 58.6539 54.9941C57.6872 54.9941 56.9215 54.2224 56.7116 53.3036C55.7557 49.1207 51.3225 45.6997 45.5764 45.6997C45.0541 45.6997 44.8629 46.4182 45.2126 46.7958C46.025 47.6732 46.52 48.838 46.52 50.116C46.52 52.8459 44.2616 55.0588 41.4756 55.0588C38.6897 55.0588 36.4313 52.8459 36.4313 50.116ZM69.1103 62.0365C69.7937 61.3706 70.8497 61.0471 71.6982 61.4977C72.5466 61.9494 72.8685 62.9965 72.2571 63.7259C70.2656 66.0988 67.0413 67.6035 63.4852 67.6035C59.931 67.6035 56.6996 66.1153 54.7056 63.7235C54.0963 62.9929 54.4222 61.9459 55.2723 61.4977C56.1224 61.0494 57.1768 61.3776 57.8592 62.0435C59.1735 63.3282 61.1682 64.1965 63.4852 64.1965C65.7963 64.1965 67.793 63.3188 69.1103 62.0365Z" fill="white"/>
</svg>
