<svg width="150" height="127" viewBox="0 0 150 127" fill="none" xmlns="http://www.w3.org/2000/svg">
<g clipPath="url(#clip0_2_2)">
<path d="M142.639 118.449C142.961 118.453 143.28 118.39 143.577 118.266C143.873 118.142 144.141 117.959 144.363 117.729C144.585 117.498 144.757 117.225 144.868 116.926C144.979 116.626 145.027 116.308 145.008 115.99C145.008 114.245 143.945 113.412 141.764 113.412H138.241V122.545H139.566V118.564H141.195L141.232 118.612L143.759 122.545H145.176L142.457 118.475L142.639 118.449ZM141.107 117.535H139.57V114.447H141.518C142.524 114.447 143.671 114.61 143.671 115.914C143.671 117.414 142.51 117.535 141.099 117.535" fill="white"/>
<path d="M108.068 107.004H89.2749V77.8627C89.2749 70.9138 89.1497 61.9684 79.5006 61.9684C69.7125 61.9684 68.2149 69.5395 68.2149 77.3568V107.002H49.4218V47.0762H67.4632V55.2657H67.7157C69.5213 52.209 72.1303 49.6945 75.2649 47.9898C78.3996 46.2852 81.9425 45.4543 85.5163 45.5857C104.564 45.5857 108.076 57.991 108.076 74.1295L108.068 107.004ZM28.217 38.8848C26.06 38.8852 23.9513 38.2523 22.1577 37.0661C20.364 35.8798 18.966 34.1936 18.1402 32.2206C17.3144 30.2476 17.098 28.0764 17.5184 25.9816C17.9388 23.8869 18.9772 21.9626 20.5021 20.4521C22.027 18.9417 23.9701 17.9129 26.0856 17.4958C28.201 17.0788 30.3938 17.2923 32.3867 18.1092C34.3797 18.9262 36.0832 20.3099 37.2818 22.0855C38.4805 23.8611 39.1205 25.9487 39.1209 28.0845C39.1212 29.5025 38.8393 30.9068 38.2915 32.217C37.7436 33.5272 36.9406 34.7178 35.9281 35.7207C34.9156 36.7236 33.7134 37.5192 32.3903 38.0621C31.0673 38.605 29.6492 38.8846 28.217 38.8848ZM37.6135 107.004H18.8009V47.0762H37.6135V107.004ZM117.437 0.00775666H9.35744C6.90434 -0.019654 4.54048 0.918375 2.78551 2.61572C1.03054 4.31306 0.028029 6.63084 -0.00190982 9.05976V116.519C0.0270043 118.949 1.02893 121.268 2.78384 122.967C4.53875 124.667 6.90312 125.606 9.35744 125.581H117.437C119.896 125.611 122.267 124.674 124.029 122.975C125.791 121.276 126.8 118.954 126.834 116.519V9.05201C126.799 6.61827 125.789 4.29785 124.027 2.60055C122.265 0.903251 119.895 -0.0320978 117.437 1.98257e-07" fill="white"/>
<path d="M141.267 109.343C138.981 109.365 136.796 110.282 135.191 111.895C133.586 113.507 132.691 115.683 132.702 117.948C132.713 120.212 133.629 122.379 135.25 123.976C136.87 125.573 139.064 126.47 141.35 126.47C143.637 126.47 145.83 125.573 147.451 123.976C149.072 122.379 149.988 120.212 149.999 117.948C150.01 115.683 149.115 113.507 147.51 111.895C145.905 110.282 143.72 109.365 141.434 109.343H141.267ZM141.267 125.489C139.768 125.514 138.294 125.098 137.033 124.294C135.772 123.489 134.781 122.333 134.184 120.97C133.587 119.608 133.411 118.1 133.679 116.639C133.947 115.178 134.647 113.828 135.69 112.761C136.733 111.693 138.072 110.956 139.538 110.642C141.004 110.328 142.531 110.452 143.926 110.997C145.321 111.542 146.522 112.485 147.376 113.706C148.23 114.927 148.699 116.371 148.724 117.856C148.724 117.899 148.724 117.94 148.724 117.982C148.766 119.93 148.025 121.815 146.663 123.222C145.302 124.629 143.432 125.443 141.465 125.486H141.269" fill="white"/>
</g>
<defs>
<clipPath id="clip0_2_2">
<rect width="150" height="126.623" fill="white"/>
</clipPath>
</defs>
</svg>
