<svg width="24" height="24" viewBox="0 0 24 24" fill="none" xmlns="http://www.w3.org/2000/svg">
<path d="M11.2642 18.6C11.4188 18.8391 11.6907 18.9984 12.0001 18.9984C12.3095 18.9984 12.5813 18.8391 12.7407 18.6L17.9063 10.6219C18.6001 9.54844 19.0032 8.36719 19.0032 6.99844C18.9985 3.04219 15.8907 0 12.0001 0C8.10947 0 5.00166 3.04219 5.00166 6.99844C5.00166 8.36719 5.40479 9.54844 6.09854 10.6219L11.2642 18.6ZM12.0001 3C14.2079 3 15.9985 4.79063 15.9985 6.99844C15.9985 9.20625 14.2079 10.9969 12.0001 10.9969C9.79228 10.9969 8.00166 9.20625 8.00166 6.99844C8.00166 4.79063 9.79228 3 12.0001 3ZM17.1282 15.1641L12.0001 21.9984L6.87197 15.1641C5.11885 16.0828 3.99854 17.4562 3.99854 18.9984C3.99854 21.7594 7.57978 24 12.0001 24C16.4204 24 20.0017 21.7594 20.0017 18.9984C20.0017 17.4562 18.8813 16.0828 17.1282 15.1641Z" fill="#98A2B3"/>
</svg>
