<svg width="24" height="24" viewBox="0 0 24 24" fill="none" xmlns="http://www.w3.org/2000/svg">
<mask id="mask0_260_506" style="mask-type:luminance" maskUnits="userSpaceOnUse" x="0" y="0" width="24" height="24">
<path d="M12 24C18.6274 24 24 18.6274 24 12C24 5.37258 18.6274 0 12 0C5.37258 0 0 5.37258 0 12C0 18.6274 5.37258 24 12 24Z" fill="white"/>
</mask>
<g mask="url(#mask0_260_506)">
<path d="M17.25 5.10943C16.7813 5.06256 16.4063 5.43756 16.4063 5.90631C16.4063 6.14068 16.5 6.42193 16.6875 6.56256L15.8906 7.35943L16.6875 8.10943L17.4375 7.31256C17.625 7.50006 17.8594 7.59381 18.0938 7.59381C18.5625 7.59381 18.9375 7.21881 18.8906 6.75006C18.9375 6.28131 18.5625 5.90631 18.0938 5.90631C18.0938 5.43756 17.7188 5.06256 17.25 5.10943ZM16.5 15.7032L15.7031 16.4532L16.6875 17.4376C16.5 17.6251 16.4063 17.8594 16.4063 18.0938C16.4063 18.5626 16.7813 18.9376 17.25 18.8907C17.7188 18.9376 18.0938 18.5626 18.0938 18.0938C18.5625 18.0938 18.9375 17.7188 18.8906 17.2501C18.9375 16.7813 18.5625 16.4063 18.0938 16.4063C17.8594 16.4063 17.625 16.5001 17.4375 16.6876L16.5 15.7032ZM12 7.03131C9.23438 7.03131 7.03125 9.28131 7.03125 12.0001V13.9219C7.03125 13.9219 7.6875 14.2969 8.71875 15.2813C9.70313 16.3126 10.0781 16.9688 10.0781 16.9688H13.9219C13.9219 16.9688 14.2969 16.3126 15.2813 15.2813C16.3125 14.2969 16.9688 13.9219 16.9688 13.9219V12.0001C16.9688 9.28131 14.7656 7.03131 12 7.03131Z" fill="#667085"/>
<path d="M9.65664 14.2032C10.5705 14.2032 11.3113 13.4623 11.3113 12.5485C11.3113 11.6346 10.5705 10.8938 9.65664 10.8938C8.74278 10.8938 8.00195 11.6346 8.00195 12.5485C8.00195 13.4623 8.74278 14.2032 9.65664 14.2032Z" fill="#0C0F14"/>
<path d="M14.3441 14.2032C15.258 14.2032 15.9988 13.4623 15.9988 12.5485C15.9988 11.6346 15.258 10.8938 14.3441 10.8938C13.4303 10.8938 12.6895 11.6346 12.6895 12.5485C12.6895 13.4623 13.4303 14.2032 14.3441 14.2032Z" fill="#0C0F14"/>
<path d="M6.75006 5.10943C7.21881 5.06256 7.59381 5.43756 7.59381 5.90631C7.59381 6.14068 7.50006 6.42193 7.31256 6.56256L8.10943 7.35943L7.31256 8.10943L6.56256 7.31256C6.37506 7.50006 6.14068 7.59381 5.90631 7.59381C5.43756 7.59381 5.06256 7.21881 5.10943 6.75006C5.06256 6.28131 5.43756 5.90631 5.90631 5.90631C5.90631 5.43756 6.28131 5.06256 6.75006 5.10943ZM7.50006 15.7032L8.29693 16.4532L7.31256 17.4376C7.50006 17.6251 7.59381 17.8594 7.59381 18.0938C7.59381 18.5626 7.21881 18.9376 6.75006 18.8907C6.28131 18.9376 5.90631 18.5626 5.90631 18.0938C5.43756 18.0938 5.06256 17.7188 5.10943 17.2501C5.06256 16.7813 5.43756 16.4063 5.90631 16.4063C6.14068 16.4063 6.37506 16.5001 6.56256 16.6876L7.50006 15.7032Z" fill="#667085"/>
<path d="M12.0004 13.7344C11.934 13.7338 11.8687 13.7508 11.811 13.7838C11.7534 13.8167 11.7055 13.8644 11.6723 13.9219L11.0629 14.8594C11.0299 14.9166 11.0125 14.9816 11.0127 15.0477C11.0128 15.1138 11.0305 15.1787 11.0638 15.2359C11.0971 15.293 11.1449 15.3403 11.2024 15.3729C11.2599 15.4056 11.325 15.4225 11.3911 15.4219H12.6098C12.6759 15.4225 12.741 15.4056 12.7985 15.3729C12.856 15.3403 12.9038 15.293 12.9371 15.2359C12.9704 15.1787 12.988 15.1138 12.9882 15.0477C12.9883 14.9816 12.971 14.9166 12.9379 14.8594L12.3286 13.9219C12.2954 13.8644 12.2475 13.8167 12.1899 13.7838C12.1322 13.7508 12.0668 13.7338 12.0004 13.7344Z" fill="#0C0F14"/>
</g>
</svg>
