<svg width="231" height="231" viewBox="0 0 231 231" fill="none" xmlns="http://www.w3.org/2000/svg">
<path d="M146.522 143.932L216.218 99.6713C217.495 135.059 201.833 172.015 171.957 191.004C159.324 199.024 144.86 203.603 130.547 208.1C118.993 211.728 107.359 215.368 95.3252 216.059C91.2391 216.295 86.9898 216.133 83.4375 214.184C79.8855 212.235 77.3783 208.058 78.4665 204.249L78.5968 203.793L78.1574 203.972C72.2293 206.383 66.0307 208.807 59.7671 207.976C56.6517 207.562 53.5684 206.009 51.3578 203.779C49.1479 201.551 47.8256 198.665 48.1851 195.582L48.2263 195.229L47.887 195.335C43.2169 196.788 38.3545 197.944 33.5408 197.373C28.7281 196.801 23.9482 194.204 21.8857 189.875C20.8588 187.72 20.7214 185.13 21.3907 182.834C22.0598 180.539 23.5278 178.558 25.6892 177.591L25.5337 177.158C22.3099 178.043 18.8223 177.313 15.9866 175.526C13.1509 173.738 10.988 170.906 10.3961 167.614C10.1033 165.986 10.3926 163.588 11.3625 160.899C12.3303 158.216 13.9688 155.263 16.3495 152.529C21.107 147.066 28.83 142.477 40.1023 142.67L40.1035 142.67L146.396 143.968L146.464 143.969L146.522 143.932Z" fill="#101828" stroke="#344054" strokeWidth="0.462"/>
<mask id="path-2-inside-1_211_161" fill="white">
<path d="M49.4341 141.372C44.5046 141.575 40.5453 142.952 35.6065 146.51C34.2205 147.507 31.9844 150.954 31.7719 152.645C31.467 155.093 34.4099 156.54 36.8215 157.085C42.1709 158.312 47.6418 158.93 53.1301 158.928C51.028 160.078 48.8797 161.275 47.3413 163.109C45.8028 164.943 45.0313 167.604 45.9922 169.79C47.4937 173.116 51.9289 173.624 55.5787 173.657L79.0992 173.846C77.2096 173.661 75.6157 175.694 75.8282 177.584C76.0407 179.473 77.6161 180.979 79.3948 181.635C81.1735 182.291 83.1278 182.25 85.0174 182.097C95.5371 181.317 105.664 177.916 115.657 174.539C113.13 176.849 115.195 181.511 118.466 182.592C121.737 183.673 133.25 183.169 136.577 182.388C170.797 174.396 175.814 167.738 191.906 152.636"/>
</mask>
<path d="M49.4341 141.372C44.5046 141.575 40.5453 142.952 35.6065 146.51C34.2205 147.507 31.9844 150.954 31.7719 152.645C31.467 155.093 34.4099 156.54 36.8215 157.085C42.1709 158.312 47.6418 158.93 53.1301 158.928C51.028 160.078 48.8797 161.275 47.3413 163.109C45.8028 164.943 45.0313 167.604 45.9922 169.79C47.4937 173.116 51.9289 173.624 55.5787 173.657L79.0992 173.846C77.2096 173.661 75.6157 175.694 75.8282 177.584C76.0407 179.473 77.6161 180.979 79.3948 181.635C81.1735 182.291 83.1278 182.25 85.0174 182.097C95.5371 181.317 105.664 177.916 115.657 174.539C113.13 176.849 115.195 181.511 118.466 182.592C121.737 183.673 133.25 183.169 136.577 182.388C170.797 174.396 175.814 167.738 191.906 152.636" fill="#1D2939"/>
<path d="M35.6065 146.51L35.8764 146.884L35.8765 146.884L35.6065 146.51ZM31.7719 152.645L31.3135 152.587L31.3134 152.588L31.7719 152.645ZM36.8215 157.085L36.9248 156.634L36.9234 156.634L36.8215 157.085ZM53.1301 158.928L53.3519 159.333L53.1299 158.466L53.1301 158.928ZM45.9922 169.79L45.5693 169.976L45.5712 169.98L45.9922 169.79ZM55.5787 173.657L55.5746 174.119L55.575 174.119L55.5787 173.657ZM79.0992 173.846L79.0954 174.308L79.1441 173.386L79.0992 173.846ZM85.0174 182.097L84.9832 181.637L84.9802 181.637L85.0174 182.097ZM115.657 174.539L115.969 174.88L115.509 174.101L115.657 174.539ZM136.577 182.388L136.472 181.939L136.471 181.939L136.577 182.388ZM49.4151 140.91C44.3838 141.118 40.3387 142.531 35.3365 146.135L35.8765 146.884C40.7518 143.373 44.6254 142.033 49.4532 141.834L49.4151 140.91ZM35.3365 146.135C34.5693 146.687 33.6254 147.86 32.8589 149.07C32.4703 149.683 32.1167 150.323 31.845 150.923C31.5764 151.515 31.3751 152.097 31.3135 152.587L32.2303 152.702C32.2749 152.347 32.4329 151.864 32.6866 151.304C32.9373 150.751 33.2691 150.149 33.6394 149.565C34.3905 148.379 35.2576 147.33 35.8764 146.884L35.3365 146.135ZM31.3134 152.588C31.1322 154.043 31.9327 155.162 33.004 155.951C34.0724 156.737 35.4779 157.255 36.7197 157.535L36.9234 156.634C35.7536 156.37 34.4818 155.891 33.552 155.207C32.6252 154.524 32.1066 153.696 32.2303 152.702L31.3134 152.588ZM36.7182 157.535C42.1015 158.77 47.6072 159.392 53.1303 159.39L53.1299 158.466C47.6765 158.468 42.2402 157.854 36.9248 156.634L36.7182 157.535ZM52.9083 158.523C50.8181 159.667 48.5905 160.901 46.9873 162.812L47.6952 163.406C49.169 161.649 51.2379 160.49 53.3519 159.333L52.9083 158.523ZM46.9873 162.812C45.3762 164.733 44.5154 167.579 45.5693 169.976L46.4152 169.604C45.5472 167.63 46.2294 165.154 47.6952 163.406L46.9873 162.812ZM45.5712 169.98C46.3961 171.807 48.0184 172.83 49.8423 173.399C51.6616 173.967 53.7381 174.102 55.5746 174.119L55.5828 173.195C53.7695 173.179 51.8036 173.044 50.1175 172.517C48.4359 171.993 47.0899 171.099 46.4133 169.6L45.5712 169.98ZM55.575 174.119L79.0954 174.308L79.1029 173.384L55.5825 173.195L55.575 174.119ZM79.1441 173.386C78.0126 173.276 77.0028 173.832 76.3222 174.639C75.6427 175.445 75.247 176.549 75.3691 177.635L76.2873 177.532C76.1969 176.728 76.4919 175.871 77.0286 175.235C77.5642 174.599 78.2962 174.232 79.0542 174.306L79.1441 173.386ZM75.3691 177.635C75.6073 179.753 77.3516 181.374 79.235 182.069L79.5547 181.202C77.8807 180.584 76.4741 179.193 76.2873 177.532L75.3691 177.635ZM79.235 182.069C81.1157 182.762 83.1583 182.711 85.0545 182.558L84.9802 181.637C83.0973 181.789 81.2314 181.82 79.5547 181.202L79.235 182.069ZM85.0516 182.558C95.6392 181.772 105.821 178.351 115.805 174.977L115.509 174.101C105.507 177.482 95.435 180.861 84.9832 181.637L85.0516 182.558ZM115.346 174.198C113.895 175.524 113.805 177.492 114.456 179.192C115.107 180.889 116.534 182.44 118.321 183.03L118.611 182.153C117.128 181.663 115.887 180.342 115.319 178.861C114.752 177.381 114.892 175.864 115.969 174.88L115.346 174.198ZM118.321 183.03C119.201 183.321 120.587 183.494 122.181 183.587C123.789 183.681 125.652 183.695 127.512 183.65C131.217 183.562 134.969 183.24 136.682 182.838L136.471 181.939C134.858 182.317 131.19 182.638 127.49 182.726C125.646 182.77 123.81 182.756 122.235 182.665C120.646 182.572 119.367 182.403 118.611 182.153L118.321 183.03ZM136.682 182.838C153.81 178.838 163.674 175.162 171.278 170.574C178.875 165.991 184.197 160.505 192.222 152.973L191.59 152.299C183.523 159.869 178.291 165.264 170.801 169.783C163.318 174.297 153.563 177.947 136.472 181.939L136.682 182.838Z" fill="#344054" mask="url(#path-2-inside-1_211_161)"/>
<path d="M202.788 66.2003C202.975 65.5335 203.316 64.8979 203.77 64.3341C204.699 63.1829 206.085 62.354 207.547 62.1883C210.495 61.8543 213.406 63.6609 215.135 66.1381C216.864 68.6162 217.606 71.6542 218.132 74.6848C223.122 103.466 211.495 138.342 186.807 156.395L186.807 156.395C170.395 168.45 148.379 172.762 128.027 174.156C106.251 175.646 83.5989 168.19 62.7189 161.318C62.1618 161.134 61.6059 160.951 61.0513 160.769L61.0511 160.769C57.554 159.623 54.0429 158.278 51.4373 155.772C50.1365 154.521 48.1378 151.802 47.2407 148.967C46.7927 147.551 46.6256 146.126 46.9388 144.848C47.2464 143.592 48.0223 142.458 49.5002 141.6C56.2865 141.302 64.8085 140.759 72.8121 139.062C80.8312 137.362 88.369 134.496 93.1122 129.519C97.8191 124.581 102.226 118.596 104.996 112.195C107.767 105.793 108.905 98.9596 107.051 92.3379C107.004 92.1701 106.956 92.0004 106.909 91.829C105.547 86.9333 103.788 80.6144 99.0128 74.8946L99.0127 74.8945C97.4558 73.0312 96.8882 71.0128 97.0155 68.9187C97.1432 66.8169 97.9719 64.628 99.2286 62.44C101.744 58.0611 105.935 53.7492 109.467 50.2353C116.488 43.2513 125.835 39.038 135.345 36.1322L135.346 36.1321C149.325 31.8565 164.698 30.1979 178.319 35.3787C191.238 40.2924 201.95 52.5308 202.324 66.1448C202.126 66.8878 202.1 67.6719 202.298 68.4514L202.753 68.4075C202.795 67.6683 202.806 66.9322 202.788 66.2003Z" fill="#1D2939" stroke="#344054" strokeWidth="0.462"/>
<mask id="path-5-inside-2_211_161" fill="white">
<path d="M193.116 43.5619C182.846 22.7303 143.751 14.2896 119.196 15.7819C94.6408 17.2741 72.1737 26.4956 52.0444 40.6097C48.7688 42.9197 44.9388 46.9068 43.8346 50.7737C43.2979 52.6176 43.4192 54.5907 44.1779 56.3549C44.9365 58.1192 46.2851 59.5646 47.9926 60.4434C51.5131 62.1944 55.3846 58.5538 56.96 54.9364C52.0582 56.7474 51.416 65.8165 53.3842 70.6444C55.6295 76.1329 62.3932 74.9641 67.4936 73.846C72.5941 72.728 77.131 68.3806 80.9425 64.8093C79.0159 66.685 77.9579 72.3076 79.9954 74.0493C82.0328 75.791 85.9505 76.0359 88.3807 74.8809C90.8108 73.7259 93.3241 69.2999 94.5345 66.8837C92.7558 69.1937 95.9205 75.135 98.845 75.0842C101.769 75.0334 104.075 72.0073 105.867 69.6834C104.236 72.7557 105.997 76.9368 109.157 78.3782C112.317 79.8197 116.188 78.8402 118.942 76.6966C121.695 74.5529 123.317 69.9005 124.583 66.6619C125.849 63.4233 126.671 60.0276 127.946 56.7936C132.229 45.9597 141.732 37.3896 152.867 33.9569C164.001 30.5243 176.535 32.1829 186.56 38.1149"/>
</mask>
<path d="M193.116 43.5619C182.846 22.7303 143.751 14.2896 119.196 15.7819C94.6408 17.2741 72.1737 26.4956 52.0444 40.6097C48.7688 42.9197 44.9388 46.9068 43.8346 50.7737C43.2979 52.6176 43.4192 54.5907 44.1779 56.3549C44.9365 58.1192 46.2851 59.5646 47.9926 60.4434C51.5131 62.1944 55.3846 58.5538 56.96 54.9364C52.0582 56.7474 51.416 65.8165 53.3842 70.6444C55.6295 76.1329 62.3932 74.9641 67.4936 73.846C72.5941 72.728 77.131 68.3806 80.9425 64.8093C79.0159 66.685 77.9579 72.3076 79.9954 74.0493C82.0328 75.791 85.9505 76.0359 88.3807 74.8809C90.8108 73.7259 93.3241 69.2999 94.5345 66.8837C92.7558 69.1937 95.9205 75.135 98.845 75.0842C101.769 75.0334 104.075 72.0073 105.867 69.6834C104.236 72.7557 105.997 76.9368 109.157 78.3782C112.317 79.8197 116.188 78.8402 118.942 76.6966C121.695 74.5529 123.317 69.9005 124.583 66.6619C125.849 63.4233 126.671 60.0276 127.946 56.7936C132.229 45.9597 141.732 37.3896 152.867 33.9569C164.001 30.5243 176.535 32.1829 186.56 38.1149" fill="#101828"/>
<path d="M52.0444 40.6097L51.7791 40.2315L51.7781 40.2322L52.0444 40.6097ZM43.8346 50.7737L44.2782 50.9029L44.2789 50.9006L43.8346 50.7737ZM47.9926 60.4434L47.7812 60.8542L47.7869 60.8571L47.9926 60.4434ZM56.96 54.9364L57.3836 55.1208L57.8162 54.1275L56.7999 54.503L56.96 54.9364ZM53.3842 70.6444L52.9563 70.8188L52.9566 70.8193L53.3842 70.6444ZM80.9425 64.8093L81.2647 65.1403L80.6266 64.4722L80.9425 64.8093ZM94.5345 66.8837L94.9476 67.0906L94.1684 66.6018L94.5345 66.8837ZM105.867 69.6834L106.275 69.9L105.502 69.4012L105.867 69.6834ZM127.946 56.7936L127.517 56.6238L127.517 56.6241L127.946 56.7936ZM193.53 43.3576C188.31 32.7682 175.814 25.3987 161.654 20.8605C147.472 16.3153 131.502 14.5711 119.168 15.3207L119.224 16.243C131.445 15.5003 147.3 17.2304 161.372 21.7404C175.466 26.2574 187.652 33.524 192.702 43.7662L193.53 43.3576ZM119.168 15.3207C94.5111 16.8191 71.9635 26.0787 51.7791 40.2315L52.3096 40.988C72.3839 26.9125 94.7704 17.7291 119.224 16.243L119.168 15.3207ZM51.7781 40.2322C50.1103 41.4083 48.3048 43.0085 46.7733 44.8085C45.2453 46.6046 43.9674 48.6262 43.3904 50.6469L44.2789 50.9006C44.806 49.0544 45.9952 47.149 47.4771 45.4073C48.9556 43.6695 50.7028 42.1212 52.3106 40.9873L51.7781 40.2322ZM43.391 50.6446C42.8243 52.5914 42.9525 54.6747 43.7534 56.5375L44.6023 56.1724C43.886 54.5067 43.7715 52.6438 44.2782 50.9029L43.391 50.6446ZM43.7534 56.5375C44.5544 58.4002 45.9784 59.9263 47.7812 60.8542L48.204 60.0326C46.5919 59.2028 45.3185 57.8381 44.6023 56.1724L43.7534 56.5375ZM47.7869 60.8571C49.754 61.8355 51.7874 61.2808 53.4738 60.0793C55.1572 58.8799 56.5678 56.994 57.3836 55.1208L56.5365 54.7519C55.7768 56.4962 54.464 58.2393 52.9376 59.3268C51.4143 60.4122 49.7517 60.8023 48.1984 60.0297L47.7869 60.8571ZM56.7999 54.503C54.1093 55.4971 52.6759 58.4362 52.1404 61.5815C51.6009 64.7507 51.9352 68.3138 52.9563 70.8188L53.812 70.47C52.865 68.147 52.5363 64.7616 53.0513 61.7366C53.5704 58.6876 54.9089 56.1867 57.1201 55.3697L56.7999 54.503ZM52.9566 70.8193C54.1645 73.772 56.6049 74.9177 59.3234 75.1825C62.0146 75.4446 65.0477 74.8552 67.5926 74.2973L67.3947 73.3947C64.8391 73.9549 61.9401 74.509 59.413 74.2628C56.9132 74.0194 54.8491 73.0053 53.8118 70.4694L52.9566 70.8193ZM67.5926 74.2973C70.2334 73.7184 72.7039 72.31 74.9772 70.6183C77.2506 68.9265 79.3579 66.9271 81.2583 65.1464L80.6266 64.4722C78.7155 66.2628 76.6486 68.2227 74.4256 69.877C72.2025 71.5313 69.8543 72.8556 67.3947 73.3947L67.5926 74.2973ZM80.6202 64.4783C79.5519 65.5183 78.7818 67.5107 78.5246 69.4178C78.3944 70.3825 78.3901 71.36 78.5595 72.2235C78.728 73.082 79.0777 73.8726 79.6951 74.4005L80.2956 73.6981C79.8943 73.3551 79.6122 72.7897 79.4662 72.0456C79.3212 71.3063 79.3198 70.4344 79.4403 69.5413C79.6843 67.7327 80.4064 65.976 81.2647 65.1403L80.6202 64.4783ZM79.6951 74.4005C80.81 75.3535 82.402 75.8718 84.0005 76.0116C85.6017 76.1517 87.2744 75.9182 88.579 75.2982L88.1823 74.4636C87.0568 74.9986 85.5556 75.2202 84.081 75.0911C82.6038 74.9619 81.2182 74.4868 80.2956 73.6981L79.6951 74.4005ZM88.579 75.2982C89.9125 74.6644 91.207 73.1775 92.2939 71.6196C93.3949 70.0414 94.3371 68.3092 94.9476 67.0906L94.1214 66.6768C93.5215 67.8744 92.6018 69.5633 91.5361 71.0909C90.4561 72.6388 89.279 73.9424 88.1823 74.4636L88.579 75.2982ZM94.1684 66.6018C93.6239 67.3091 93.488 68.2501 93.5869 69.1948C93.6865 70.1463 94.029 71.1607 94.5176 72.0851C95.0064 73.0098 95.6542 73.8687 96.386 74.4992C97.1121 75.1247 97.9649 75.5616 98.853 75.5461L98.8369 74.6223C98.2628 74.6322 97.6233 74.3455 96.9891 73.7991C96.3606 73.2576 95.7801 72.4964 95.3345 71.6533C94.8887 70.81 94.5907 69.9092 94.5059 69.0986C94.4203 68.2811 94.5558 67.6133 94.9006 67.1655L94.1684 66.6018ZM98.853 75.5461C100.477 75.5179 101.889 74.6645 103.09 73.579C104.293 72.4927 105.343 71.1199 106.233 69.9656L105.502 69.4012C104.599 70.5707 103.6 71.873 102.471 72.8934C101.34 73.9146 100.137 74.5997 98.8369 74.6223L98.853 75.5461ZM105.459 69.4668C104.569 71.1446 104.615 73.1021 105.285 74.8111C105.955 76.519 107.264 78.0225 108.965 78.7986L109.349 77.9579C107.89 77.2925 106.738 75.9847 106.146 74.4737C105.553 72.9637 105.535 71.2945 106.275 69.9L105.459 69.4668ZM108.965 78.7986C112.328 80.3326 116.382 79.2749 119.226 77.0611L118.658 76.332C115.995 78.4055 112.306 79.3068 109.349 77.9579L108.965 78.7986ZM119.226 77.0611C120.686 75.9242 121.817 74.1491 122.734 72.2946C123.654 70.4356 124.386 68.4361 125.013 66.8301L124.153 66.4937C123.515 68.1264 122.803 70.0724 121.906 71.8851C121.008 73.7023 119.951 75.3252 118.658 76.332L119.226 77.0611ZM125.013 66.8301C125.653 65.1939 126.179 63.5203 126.702 61.8651C127.226 60.2048 127.745 58.5626 128.376 56.9631L127.517 56.6241C126.872 58.2586 126.343 59.9312 125.821 61.587C125.297 63.2478 124.779 64.8913 124.153 66.4937L125.013 66.8301ZM128.376 56.9634C132.605 46.2644 141.998 37.7912 153.003 34.3984L152.731 33.5154C141.467 36.988 131.853 45.655 127.517 56.6238L128.376 56.9634ZM153.003 34.3984C164.008 31.0056 176.407 32.6442 186.325 38.5125L186.796 37.7173C176.662 31.7215 163.994 30.0429 152.731 33.5154L153.003 34.3984Z" fill="#344054" mask="url(#path-5-inside-2_211_161)"/>
<path d="M209.064 47.9418C209.064 47.9418 209.115 47.8956 209.235 47.8309C209.404 47.7332 209.586 47.6586 209.775 47.6092C210.477 47.416 211.222 47.4532 211.901 47.7154C212.375 47.8908 212.803 48.172 213.153 48.5378C213.551 48.9686 213.81 49.5096 213.896 50.0901C213.997 50.727 213.914 51.3794 213.656 51.9705C213.391 52.6185 212.914 53.1575 212.303 53.4997C211.681 53.8188 210.967 53.9135 210.284 53.7676C209.648 53.6469 209.061 53.3416 208.597 52.8898C208.173 52.4803 207.894 51.9433 207.803 51.3606C207.732 50.8586 207.789 50.347 207.969 49.873C208.212 49.1833 208.694 48.6033 209.327 48.2375C209.427 48.1819 209.53 48.134 209.637 48.0943C209.713 48.0618 209.792 48.037 209.872 48.0204C209.937 47.9993 210.004 47.9884 210.071 47.988C209.834 48.0858 209.603 48.1969 209.378 48.3207C208.79 48.6971 208.349 49.2649 208.131 49.9284C207.975 50.3729 207.93 50.8488 208.001 51.3144C208.097 51.8451 208.361 52.331 208.754 52.7004C209.19 53.1166 209.737 53.396 210.33 53.5043C210.956 53.6329 211.608 53.5449 212.178 53.2548C212.737 52.9449 213.176 52.457 213.425 51.8688C213.669 51.3179 213.752 50.7094 213.665 50.1132C213.59 49.5732 213.355 49.0681 212.991 48.6625C212.666 48.3136 212.269 48.0407 211.827 47.8633C211.18 47.598 210.467 47.5383 209.785 47.6923C209.54 47.7632 209.3 47.8464 209.064 47.9418Z" fill="#263238"/>
<path d="M191.268 83.9314C191.263 83.8684 191.263 83.805 191.268 83.742C191.268 83.6034 191.245 83.414 191.231 83.1783C191.231 82.6794 191.162 81.9494 191.083 81.0116C190.539 74.4166 188.937 67.9522 186.339 61.8663C186.117 61.3535 185.877 60.836 185.65 60.3232C185.425 59.7956 185.169 59.2819 184.883 58.7847C184.587 58.2857 184.225 57.8289 183.807 57.4265C183.402 57.011 182.877 56.733 182.305 56.6318C182.02 56.6019 181.732 56.6432 181.467 56.752C181.201 56.8609 180.967 57.0339 180.785 57.2555C180.426 57.7435 180.184 58.3079 180.078 58.9049C179.95 59.5305 179.784 60.1477 179.58 60.7529C179.355 61.3842 178.928 61.9236 178.364 62.2867C177.787 62.6222 177.122 62.7737 176.456 62.721C175.496 62.6593 174.574 62.3248 173.797 61.7568C173.02 61.1889 172.422 60.411 172.072 59.5147C171.645 58.3864 171.406 57.1955 171.365 55.9896C171.296 54.8208 171.31 53.6796 171.264 52.5662C171.249 50.4628 170.735 48.3929 169.762 46.5279C169.303 45.6989 168.691 44.9639 167.96 44.3611C167.277 43.807 166.492 43.3912 165.65 43.1368C164.941 42.8911 164.185 42.8125 163.44 42.9071C162.696 43.0016 161.983 43.2668 161.358 43.682C160.443 44.3553 159.808 45.3421 159.575 46.454C159.412 47.157 159.465 47.8929 159.727 48.5653C159.792 48.7401 159.876 48.9074 159.977 49.0643C160.012 49.1185 160.043 49.1757 160.069 49.2352C160.026 49.1873 159.989 49.1346 159.958 49.0781C159.845 48.9258 159.752 48.7597 159.681 48.5838C159.396 47.905 159.327 47.155 159.483 46.4355C159.702 45.2831 160.343 44.2538 161.28 43.548C161.924 43.1148 162.659 42.8368 163.429 42.7358C164.198 42.6348 164.981 42.7136 165.715 42.9659C166.575 43.2219 167.376 43.6424 168.076 44.204C168.826 44.8187 169.453 45.5695 169.924 46.417C170.924 48.3069 171.457 50.4094 171.476 52.5477C171.527 53.6658 171.513 54.8069 171.587 55.9665C171.627 57.1476 171.863 58.3138 172.285 59.4177C172.718 60.5584 173.582 61.4828 174.692 61.991C175.245 62.2595 175.847 62.4165 176.461 62.453C177.078 62.504 177.695 62.3654 178.23 62.0557C178.749 61.7202 179.141 61.221 179.344 60.6374C179.545 60.0443 179.711 59.4395 179.838 58.8263C179.952 58.1955 180.209 57.5993 180.591 57.0846C180.799 56.8326 181.066 56.636 181.368 56.5127C181.671 56.3893 181.999 56.3429 182.324 56.3777C182.945 56.4858 183.518 56.7864 183.959 57.237C184.387 57.6491 184.76 58.115 185.068 58.623C185.355 59.1289 185.614 59.6502 185.844 60.1846C186.094 60.702 186.306 61.2241 186.533 61.7369C188.078 65.3826 189.263 69.1705 190.072 73.0467C190.616 75.6569 190.983 78.301 191.171 80.9607C191.231 81.8847 191.263 82.6378 191.273 83.1321C191.273 83.3724 191.273 83.5618 191.273 83.7004C191.279 83.7774 191.277 83.8547 191.268 83.9314Z" fill="#475467"/>
<path d="M189.42 118.152C189.42 118.152 189.42 118.115 189.462 118.046L189.609 117.754L190.205 116.632C190.469 116.17 190.783 115.555 191.129 114.853C191.476 114.151 191.887 113.365 192.28 112.465C192.483 112.003 192.695 111.541 192.922 111.079C193.148 110.617 193.342 110.067 193.569 109.535C194.031 108.478 194.446 107.313 194.908 106.098C195.777 103.654 196.627 100.924 197.348 98.0132C198.069 95.1026 198.554 92.2844 198.909 89.6972C199.062 88.4036 199.224 87.1793 199.302 86.0289C199.348 85.4514 199.408 84.897 199.441 84.3611C199.473 83.8252 199.492 83.3124 199.519 82.8227C199.584 81.8386 199.579 80.9747 199.598 80.1708C199.616 79.3669 199.598 78.7155 199.598 78.1657C199.598 77.6159 199.598 77.2094 199.598 76.8998V76.5718C199.594 76.5334 199.594 76.4947 199.598 76.4563C199.603 76.4931 199.603 76.5304 199.598 76.5672C199.598 76.655 199.598 76.7658 199.598 76.8998C199.598 77.2094 199.63 77.6298 199.653 78.1657C199.676 78.7016 199.699 79.39 199.69 80.1708C199.681 80.9516 199.69 81.8432 199.644 82.8273C199.644 83.3216 199.602 83.8344 199.584 84.375C199.565 84.9155 199.501 85.4653 199.464 86.0428C199.39 87.2024 199.233 88.4313 199.085 89.7388C198.714 92.5355 198.199 95.3112 197.542 98.0548C196.857 100.797 196.034 103.504 195.075 106.163C194.613 107.378 194.179 108.542 193.712 109.6C193.481 110.131 193.273 110.654 193.047 111.139C192.82 111.624 192.585 112.095 192.391 112.525C191.989 113.426 191.559 114.206 191.208 114.904C190.857 115.602 190.524 116.193 190.252 116.669L189.619 117.768L189.448 118.05C189.442 118.085 189.433 118.119 189.42 118.152Z" fill="#263238"/>
<path d="M178.489 81.6445C178.517 81.7585 178.537 81.8743 178.549 81.991C178.581 82.2405 178.623 82.5731 178.678 82.9843C178.702 83.2061 178.734 83.4463 178.762 83.705C178.789 83.9638 178.803 84.2595 178.822 84.569C178.859 85.1881 178.928 85.8903 178.919 86.6711C178.919 87.0638 178.919 87.4704 178.919 87.8954C178.919 88.3204 178.891 88.764 178.873 89.226C178.873 90.15 178.748 91.1202 178.651 92.1458C178.397 94.3705 177.981 96.5739 177.408 98.7385C176.79 100.896 176.018 103.007 175.098 105.054C174.636 105.978 174.248 106.902 173.795 107.678C173.573 108.08 173.375 108.477 173.158 108.842L172.52 109.891C172.127 110.566 171.707 111.139 171.36 111.651C171.185 111.906 171.028 112.146 170.871 112.358L170.409 112.936L169.785 113.726C169.717 113.82 169.642 113.908 169.559 113.989C169.614 113.886 169.678 113.787 169.748 113.693L170.33 112.88L170.755 112.294C170.908 112.076 171.06 111.832 171.217 111.573C171.554 111.055 171.961 110.483 172.34 109.803L172.964 108.75C173.176 108.385 173.37 107.988 173.587 107.586C174.049 106.787 174.428 105.895 174.862 104.962C175.758 102.92 176.511 100.819 177.117 98.6739C177.695 96.5226 178.123 94.3335 178.397 92.1227C178.498 91.1017 178.614 90.1315 178.642 89.2167C178.642 88.7547 178.697 88.3204 178.702 87.8954C178.706 87.4704 178.702 87.0638 178.702 86.6757C178.702 85.8949 178.665 85.1927 178.642 84.5782C178.642 84.2687 178.642 83.9822 178.605 83.7143C178.568 83.4463 178.558 83.2153 178.535 82.9936C178.504 82.5778 178.477 82.2451 178.452 81.9956C178.453 81.8777 178.466 81.7601 178.489 81.6445Z" fill="#263238"/>
<path d="M158.928 89.8819C158.974 89.7896 159.028 89.7015 159.089 89.6186L159.588 88.9025L159.953 88.3851C160.083 88.1956 160.207 87.9785 160.351 87.7475C160.628 87.2855 160.974 86.7773 161.275 86.1721L161.774 85.2481C161.945 84.9201 162.088 84.5597 162.259 84.1993C162.605 83.4832 162.887 82.6794 163.206 81.8431C163.836 80.0065 164.3 78.117 164.592 76.1975C164.853 74.2719 164.942 72.327 164.86 70.3855C164.791 69.4939 164.749 68.6438 164.615 67.8584C164.555 67.4657 164.518 67.0822 164.449 66.7173C164.379 66.3523 164.301 66.0104 164.236 65.6778C164.116 65.0079 163.931 64.4211 163.774 63.9037C163.705 63.645 163.645 63.4001 163.575 63.1783L163.372 62.5824C163.257 62.2405 163.169 61.9633 163.095 61.7508C163.057 61.6558 163.03 61.5565 163.016 61.4551C163.067 61.5433 163.108 61.6361 163.141 61.7323C163.224 61.9448 163.331 62.1943 163.46 62.55L163.686 63.1414C163.76 63.3631 163.825 63.6034 163.903 63.8621C164.051 64.3842 164.255 64.9709 164.365 65.6408C164.435 65.9734 164.513 66.3199 164.592 66.6849C164.67 67.0499 164.712 67.4334 164.777 67.8307C164.92 68.6207 164.971 69.4754 165.045 70.3763C165.274 74.2994 164.707 78.2284 163.377 81.9263C163.053 82.7671 162.762 83.5756 162.402 84.2917C162.226 84.6521 162.079 85.0125 161.903 85.3405L161.386 86.2645C161.071 86.8697 160.716 87.3733 160.425 87.8307C160.277 88.057 160.147 88.2696 160.009 88.459L159.63 88.9672L159.089 89.6602C159.043 89.7395 158.989 89.8138 158.928 89.8819Z" fill="#475467"/>
<path d="M172.326 131.961L172.437 131.873L172.774 131.633C173.065 131.42 173.523 131.139 174.073 130.709C175.643 129.557 177.13 128.294 178.522 126.93C180.586 124.908 182.453 122.694 184.098 120.319C186.11 117.414 187.832 114.319 189.24 111.079C192.238 104.149 193.629 97.4127 194.396 92.5478C194.775 90.1084 195.01 88.1265 195.163 86.7543C195.237 86.0798 195.292 85.5485 195.334 85.1697L195.385 84.7585C195.385 84.7114 195.393 84.6646 195.408 84.6199C195.414 84.6674 195.414 84.7155 195.408 84.7631C195.408 84.8694 195.408 85.0033 195.38 85.1743C195.357 85.5393 195.32 86.0983 195.255 86.7636C195.135 88.1496 194.923 90.1269 194.562 92.5755C193.68 98.9693 191.972 105.222 189.48 111.176C188.065 114.434 186.329 117.543 184.297 120.457C182.637 122.838 180.749 125.05 178.66 127.064C177.253 128.422 175.744 129.67 174.146 130.797C173.587 131.208 173.121 131.476 172.821 131.679L172.469 131.901L172.326 131.961Z" fill="#475467"/>
<path d="M130.432 23.2849C130.364 23.292 130.296 23.292 130.229 23.2849L129.642 23.2479L127.373 23.077L125.733 22.9476C125.133 22.9153 124.481 22.9153 123.779 22.8922C122.393 22.8922 120.781 22.772 119.016 22.8644L116.244 22.943C115.283 22.9753 114.285 23.0908 113.25 23.1647L111.675 23.2941C111.407 23.3172 111.134 23.3311 110.866 23.3634L110.048 23.4743L106.671 23.9363C101.68 24.7392 96.7556 25.9112 91.9381 27.4429C87.1329 29.0471 82.4538 31.0068 77.9395 33.3056L74.9411 34.9273L74.2204 35.32C73.9801 35.4539 73.7584 35.6018 73.5274 35.7404L72.1737 36.5674C71.2959 37.1171 70.4227 37.6115 69.6281 38.152L67.3458 39.7321C65.8674 40.6976 64.6339 41.7187 63.5158 42.5641C62.9614 42.9938 62.4394 43.3819 61.9727 43.7607L60.7253 44.8141L58.9928 46.2878L58.5308 46.6667C58.4811 46.7134 58.427 46.7552 58.3691 46.7914C58.4138 46.7407 58.4617 46.6929 58.5124 46.6482L58.9744 46.2509L60.6791 44.7448L61.9081 43.6637C62.3701 43.2802 62.8921 42.8875 63.4419 42.4486C64.5553 41.5939 65.7796 40.5637 67.258 39.5842L69.5357 37.9996C70.3303 37.4498 71.2035 36.9508 72.0813 36.3964L73.4303 35.5648C73.6613 35.4216 73.8923 35.2738 74.1233 35.1398L74.8441 34.7425L77.8424 33.107C82.3599 30.7936 87.0456 28.8245 91.8595 27.2165C96.6922 25.6759 101.634 24.5022 106.644 23.7053L110.03 23.2433L110.848 23.1324C111.12 23.1047 111.388 23.0908 111.656 23.0677L113.236 22.943C114.276 22.8737 115.274 22.7628 116.239 22.7351L119.011 22.6704C120.776 22.5919 122.375 22.7027 123.779 22.7351C124.481 22.7628 125.137 22.772 125.733 22.8136L127.373 22.9615L129.642 23.174L130.229 23.2387C130.298 23.2474 130.366 23.2629 130.432 23.2849Z" fill="#475467"/>
<path d="M136.516 41.6909C136.516 41.6909 136.479 41.7371 136.396 41.811L136.017 42.1437C135.685 42.4347 135.186 42.8505 134.534 43.3772C133.227 44.4259 131.3 45.9043 128.783 47.5352C128.154 47.9464 127.489 48.3668 126.787 48.7872C126.084 49.2076 125.364 49.6604 124.56 50.0485C123.733 50.4973 122.778 50.6505 121.853 50.4828C121.368 50.3755 120.92 50.1429 120.554 49.8082C120.179 49.4696 119.874 49.0597 119.658 48.6024C119.217 47.6603 119.039 46.616 119.145 45.5809C119.296 44.5157 119.604 43.4787 120.06 42.504C120.476 41.5061 120.947 40.5174 121.284 39.4641C121.372 39.2033 121.446 38.938 121.506 38.6694C121.58 38.4097 121.614 38.1402 121.608 37.8702C121.605 37.7441 121.575 37.6202 121.521 37.5063C121.467 37.3925 121.389 37.2913 121.294 37.2095C121.087 37.0612 120.836 36.9894 120.582 37.0062C120.03 37.0378 119.49 37.1842 118.997 37.4359L117.454 38.1058L114.433 39.4132L108.727 41.8803C107.844 42.304 106.893 42.5683 105.918 42.6611C105.447 42.693 104.973 42.6274 104.528 42.4684C104.083 42.3095 103.676 42.0605 103.331 41.7371C103.001 41.424 102.772 41.0206 102.67 40.5775C102.584 40.1514 102.611 39.7102 102.749 39.2977C103.025 38.5524 103.41 37.8519 103.89 37.2187C105.223 35.2602 106.684 33.3927 108.265 31.6285C108.829 31.0048 109.277 30.5336 109.586 30.2194L109.942 29.8637C110.025 29.7852 110.067 29.7482 110.072 29.7528L109.961 29.8822L109.623 30.2518C109.323 30.5798 108.884 31.0603 108.334 31.6886C106.784 33.472 105.347 35.3515 104.033 37.3158C103.567 37.9359 103.193 38.6207 102.924 39.3486C102.801 39.7322 102.779 40.1411 102.86 40.5359C102.955 40.9406 103.167 41.3085 103.47 41.5939C103.797 41.8917 104.182 42.1192 104.601 42.2622C105.019 42.4053 105.463 42.4608 105.904 42.4255C106.854 42.3317 107.78 42.0705 108.639 41.6539L114.34 39.173L117.348 37.884L118.891 37.2141C119.413 36.9445 119.986 36.7872 120.573 36.7521C120.888 36.7357 121.198 36.8306 121.451 37.0201C121.571 37.1233 121.669 37.2506 121.737 37.3938C121.806 37.537 121.843 37.693 121.848 37.8517C121.855 38.1448 121.819 38.4375 121.742 38.7202C121.677 38.9974 121.598 39.2654 121.515 39.5334C121.169 40.6052 120.693 41.5985 120.277 42.5918C119.835 43.5409 119.535 44.5495 119.385 45.5856C119.276 46.5781 119.436 47.5818 119.847 48.4915C120.026 48.9239 120.302 49.3093 120.654 49.6178C121.006 49.9263 121.424 50.1495 121.876 50.2702C122.757 50.4297 123.666 50.2847 124.454 49.8591C125.239 49.4848 125.964 49.0321 126.671 48.6209C127.378 48.2097 128.057 47.7893 128.667 47.3827C131.19 45.7704 133.13 44.3151 134.451 43.2894L135.962 42.0928L136.355 41.7787L136.516 41.6909Z" fill="#475467"/>
<path d="M112.368 57.4868C112.332 57.5147 112.293 57.538 112.252 57.5561L111.91 57.7317C111.605 57.8841 111.152 58.0967 110.547 58.3323C108.84 58.9954 107.046 59.4078 105.22 59.5566C103.957 59.6599 102.687 59.6398 101.427 59.4965C100.72 59.4303 100.019 59.3099 99.3299 59.1362C98.592 58.9454 97.8953 58.6213 97.274 58.1798C96.6204 57.6976 96.1251 57.0318 95.851 56.2671C95.5747 55.4744 95.4769 54.6304 95.5646 53.7954C95.7263 52.0814 96.5533 50.4921 97.3895 48.9352L97.5235 49.1061L96.7612 49.3002L86.8004 51.7442C86.0444 51.9433 85.2707 52.0686 84.4904 52.1184C83.7454 52.1696 82.9999 52.0246 82.3283 51.698C81.7077 51.3683 81.2091 50.8486 80.9053 50.2149C80.6308 49.6368 80.4827 49.0068 80.471 48.3669C80.459 47.2703 80.7725 46.1946 81.3719 45.2762C81.8085 44.5848 82.3215 43.9447 82.9012 43.3681C83.3632 42.9061 83.7559 42.5457 84.0192 42.3101L84.3195 42.0468L84.4258 41.9636C84.4258 41.9636 84.398 42.0006 84.3334 42.0653L84.0515 42.3471C83.7974 42.5919 83.4232 42.9523 82.9658 43.4328C82.4069 44.0147 81.9113 44.6543 81.4874 45.3408C80.9196 46.2443 80.6318 47.2956 80.6605 48.3623C80.676 48.976 80.8225 49.5793 81.0901 50.1318C81.3797 50.7264 81.8526 51.2123 82.4392 51.5178C83.0803 51.8247 83.7911 51.957 84.4997 51.9012C85.2603 51.8495 86.014 51.7226 86.7496 51.5224L96.7103 49.0276L97.4726 48.8382L97.736 48.7735L97.6112 49.0091C96.775 50.5661 95.9665 52.1322 95.8048 53.7816C95.7199 54.5817 95.8114 55.3907 96.0728 56.1516C96.3297 56.8775 96.7979 57.5098 97.4172 57.9673C98.0144 58.3935 98.6845 58.7067 99.3946 58.8913C100.069 59.0734 100.756 59.2047 101.45 59.284C102.697 59.4311 103.955 59.4605 105.207 59.3718C107.02 59.2357 108.807 58.8501 110.515 58.226C111.12 58.0089 111.582 57.8102 111.901 57.6716L112.257 57.5145L112.368 57.4868Z" fill="#475467"/>
<path d="M174.968 154.114C174.968 154.114 174.89 154.16 174.733 154.234L174.035 154.562C173.425 154.858 172.506 155.264 171.314 155.786C167.904 157.235 164.422 158.509 160.882 159.602C155.537 161.254 150.091 162.558 144.578 163.506C142.967 163.833 141.333 164.032 139.69 164.102C137.941 164.19 136.206 163.751 134.71 162.841C133.942 162.355 133.292 161.705 132.806 160.938C132.303 160.148 132.076 159.214 132.16 158.281C132.268 157.332 132.687 156.445 133.352 155.759C133.681 155.4 134.088 155.121 134.541 154.942C134.993 154.763 135.481 154.688 135.966 154.724L136.678 154.793L135.98 154.955C131.707 155.925 127.239 156.803 122.633 157.542C119.926 157.976 117.254 158.354 114.617 158.674C113.301 158.822 112.002 159.016 110.69 159.043C109.383 159.121 108.077 158.88 106.884 158.341C106.304 158.047 105.802 157.62 105.419 157.094C105.049 156.566 104.81 155.958 104.721 155.32C104.583 154.074 104.856 152.816 105.498 151.739C106.133 150.72 106.971 149.843 107.96 149.161C108.895 148.507 109.87 147.911 110.88 147.378L110.949 147.577C105.627 148.464 100.707 149.152 96.3268 149.683C95.2319 149.813 94.1739 149.947 93.1437 150.044C92.1469 150.16 91.1386 150.132 90.1499 149.961C89.2223 149.804 88.3682 149.358 87.7105 148.685C87.1387 148.049 86.7675 147.259 86.6433 146.412C86.4341 144.983 86.7246 143.526 87.4657 142.287C88.0061 141.381 88.6683 140.554 89.4338 139.829C90.0569 139.212 90.7123 138.629 91.3973 138.083L91.2772 138.203L90.9029 138.535C90.5749 138.836 90.0806 139.265 89.48 139.875C88.7284 140.604 88.0802 141.433 87.5534 142.338C86.8338 143.558 86.5564 144.989 86.7681 146.389C86.8921 147.209 87.2553 147.974 87.8122 148.588C88.4531 149.234 89.2805 149.662 90.1776 149.813C92.0533 150.168 94.1231 149.739 96.3037 149.508C100.679 148.963 105.595 148.265 110.917 147.364L111.531 147.262L110.986 147.563C109.982 148.095 109.011 148.689 108.08 149.341C107.119 150.007 106.305 150.863 105.687 151.855C105.07 152.888 104.808 154.096 104.943 155.292C105.024 155.892 105.247 156.464 105.595 156.96C105.956 157.458 106.431 157.862 106.981 158.138C108.14 158.659 109.408 158.889 110.677 158.808C111.966 158.785 113.264 158.586 114.58 158.438C117.209 158.119 119.884 157.745 122.587 157.311C127.184 156.572 131.647 155.699 135.92 154.728V154.959C135.469 154.928 135.017 154.999 134.597 155.166C134.178 155.333 133.801 155.592 133.495 155.925C132.87 156.576 132.475 157.413 132.367 158.309C132.288 159.192 132.502 160.078 132.977 160.827C133.448 161.573 134.079 162.204 134.825 162.675C136.285 163.563 137.979 163.993 139.686 163.908C141.315 163.844 142.938 163.649 144.537 163.326C150.046 162.392 155.49 161.108 160.836 159.482C165.35 158.096 168.879 156.71 171.277 155.731C172.474 155.223 173.398 154.83 174.012 154.548L174.719 154.239L174.968 154.114Z" fill="#475467"/>
<path d="M85.4194 86.5373C84.8426 85.5403 83.9348 84.7767 82.8537 84.3792C81.7727 83.9818 80.5865 83.9754 79.5012 84.3612C77.0711 84.911 76.2672 87.9741 77.1219 90.321C77.9766 92.668 80.9981 93.9154 83.2619 92.8759C84.3746 92.3068 85.2221 91.3269 85.6249 90.1437C86.0276 88.9605 85.9539 87.667 85.4194 86.5373Z" fill="#101828"/>
<path d="M85.4192 86.5373C85.6208 86.8623 85.7631 87.2205 85.8396 87.5953C86.0616 88.6266 85.9467 89.7019 85.5116 90.663C85.2154 91.3299 84.7715 91.9207 84.2134 92.3908C83.5634 92.9254 82.7653 93.2478 81.9265 93.3148C81.4738 93.3484 81.0186 93.322 80.5728 93.2363C80.1093 93.1421 79.6603 92.9868 79.2376 92.7743C78.8044 92.5473 78.4048 92.2613 78.0503 91.9242C77.6906 91.5652 77.3939 91.1482 77.1725 90.6907C76.6141 89.4246 76.5401 87.9976 76.9646 86.6805C77.1582 86.0731 77.4958 85.5215 77.9487 85.0728C78.3778 84.6603 78.9113 84.3728 79.4917 84.2412L79.5564 84.4352L79.4779 84.2458C80.3851 83.9242 81.3671 83.8776 82.3007 84.1118C83.013 84.2739 83.6814 84.5892 84.2596 85.0358C84.6204 85.3279 84.9323 85.6757 85.1836 86.0661C85.2714 86.2 85.3222 86.3109 85.3638 86.3848C85.4053 86.4588 85.4192 86.4957 85.4146 86.5003C85.0811 85.9704 84.6592 85.5016 84.1672 85.1143C83.594 84.6903 82.9373 84.3927 82.2406 84.2412C81.3412 84.0325 80.4004 84.0903 79.5333 84.4075L79.4548 84.2181L79.5195 84.4075C78.9783 84.5371 78.482 84.81 78.0826 85.1975C77.658 85.6252 77.3413 86.1478 77.1586 86.7221C76.7578 87.9825 76.8301 89.3458 77.3619 90.5567C77.5713 90.9878 77.8507 91.3813 78.1889 91.7209C78.5271 92.0427 78.9079 92.3163 79.3208 92.5341C79.7222 92.7432 80.1494 92.8985 80.5913 92.9961C81.0143 93.077 81.4459 93.1034 81.8757 93.0746C82.6758 93.012 83.438 92.7075 84.0609 92.2014C84.6009 91.7539 85.0348 91.1922 85.3314 90.5567C85.7669 89.6277 85.9025 88.5863 85.7195 87.5768C85.6399 87.2247 85.5396 86.8776 85.4192 86.5373Z" fill="#263238"/>
<path d="M193.671 44.5046C193.671 44.5046 193.587 44.3844 193.43 44.1442L192.747 43.0631C192.46 42.6011 192.054 42.019 191.573 41.3537C191.328 41.0257 191.083 40.6561 190.788 40.2865L189.836 39.1176C188.183 37.1248 186.359 35.2806 184.384 33.606C181.778 31.3892 178.98 29.4086 176.022 27.6878C172.418 25.6181 168.654 23.8384 164.768 22.3655C162.67 21.5801 160.481 20.8178 158.194 20.1479C155.907 19.478 153.527 18.8405 151.07 18.2999C148.612 17.7594 146.075 17.265 143.47 16.8677C140.864 16.4704 138.189 16.1424 135.459 15.9437C132.728 15.7451 129.938 15.5972 127.106 15.6018C126.399 15.6018 125.692 15.6018 124.976 15.6018C124.26 15.6018 123.553 15.6665 122.832 15.6942C122.111 15.722 121.4 15.7543 120.679 15.8051L118.512 15.9807C107.62 16.9789 96.9035 19.3924 86.6344 23.1602C81.8897 24.8649 77.4684 26.7176 73.412 28.621C69.3556 30.5244 65.6042 32.4695 62.2501 34.2574C60.5622 35.1475 58.9807 36.0315 57.5053 36.9093C56.0362 37.7917 54.6871 38.688 53.4675 39.5843C51.3739 41.1072 49.4965 42.9069 47.8865 44.9342C47.3073 45.6742 46.769 46.4454 46.2741 47.2442C45.8768 47.9557 45.5303 48.5609 45.2854 49.0645C45.0406 49.5681 44.8789 49.9608 44.7541 50.2241C44.6294 50.4875 44.5693 50.6214 44.5693 50.6214C44.5693 50.6214 44.6202 50.4828 44.731 50.2149C44.8419 49.9469 45.0175 49.5542 45.2392 49.0414C45.461 48.5286 45.8214 47.928 46.2141 47.1934C46.7039 46.3827 47.2375 45.5992 47.8126 44.8464C49.4147 42.8002 51.2912 40.9844 53.3889 39.4503C54.604 38.5263 55.953 37.6392 57.4268 36.7522C58.9006 35.8652 60.4852 34.9735 62.1715 34.0772C65.5349 32.2847 69.2263 30.3212 73.2873 28.4085C77.3482 26.4958 81.7742 24.657 86.5189 22.943C96.8084 19.1584 107.549 16.7355 118.466 15.7358L120.638 15.5603C121.358 15.5094 122.084 15.491 122.8 15.454C123.516 15.417 124.232 15.3801 124.948 15.357C125.664 15.3339 126.376 15.3293 127.083 15.3339C129.919 15.3339 132.714 15.4632 135.454 15.685C138.194 15.9068 140.869 16.2348 143.479 16.6367C146.089 17.0387 148.635 17.5145 151.097 18.0782C153.56 18.6418 155.944 19.2516 158.231 19.9262C160.517 20.6007 162.717 21.3907 164.814 22.1761C168.708 23.6572 172.476 25.4494 176.082 27.5353C179.051 29.2692 181.859 31.2653 184.472 33.4997C186.444 35.1843 188.264 37.0395 189.91 39.0437L190.834 40.2218C191.13 40.5914 191.37 40.9656 191.61 41.2983C192.072 41.9682 192.488 42.5364 192.77 43.0262L193.435 44.1165C193.601 44.3752 193.671 44.5046 193.671 44.5046Z" fill="#263238"/>
<path d="M56.5534 58.3277C56.5534 58.3277 56.5164 58.3923 56.4332 58.5032C56.3106 58.6668 56.1763 58.8212 56.0313 58.9652C55.4985 59.5129 54.8728 59.9618 54.1833 60.2912C53.1776 60.7932 52.0731 61.0661 50.9493 61.0904C49.553 61.1567 48.1707 60.7867 46.9942 60.0316C45.8178 59.2766 44.9056 58.174 44.3843 56.877C43.934 55.8421 43.7194 54.7201 43.756 53.5922C43.7812 52.8319 43.9375 52.0817 44.218 51.3746C44.2914 51.1826 44.3779 50.9958 44.4767 50.8155C44.5414 50.6923 44.5783 50.6323 44.5876 50.6354C44.5876 50.6354 44.4767 50.9079 44.3057 51.4069C44.0699 52.1115 43.9482 52.8492 43.9454 53.5922C43.9335 54.6944 44.1588 55.7863 44.606 56.7938C45.12 58.0432 46.0054 59.1046 47.1425 59.8342C48.2795 60.5639 49.6132 60.9266 50.9632 60.8733C52.0643 60.8615 53.15 60.6125 54.1463 60.1433C54.8245 59.8299 55.4483 59.4104 55.9943 58.9005C56.3639 58.5402 56.5349 58.3092 56.5534 58.3277Z" fill="#263238"/>
<path d="M75.3057 59.2008L75.4443 59.1453C75.5812 59.0919 75.7238 59.0547 75.8694 59.0344C76.4308 58.9517 77.0042 59.0236 77.5279 59.2423C78.3707 59.5778 79.0656 60.2038 79.4868 61.0072C80.0052 62.0909 80.1072 63.3274 79.7733 64.4814C79.3688 65.8677 78.5885 67.115 77.5187 68.085C76.3171 69.197 75.006 70.1846 73.6056 71.0326C72.0699 71.9801 70.4545 72.7916 68.7777 73.4581C66.984 74.2095 65.1051 74.7386 63.1828 75.0335C61.2489 75.3505 59.2668 75.192 57.4078 74.5715C55.6631 73.9512 54.2346 72.6657 53.4346 70.9956C52.7529 69.4853 52.4958 67.8178 52.6908 66.1723C52.7742 65.4323 52.9289 64.702 53.1528 63.9917C53.363 63.3392 53.6209 62.703 53.9244 62.0883C54.8809 60.2527 56.0653 58.5452 57.4494 57.0063C57.9114 56.4565 58.3041 56.0407 58.5628 55.7542C58.6876 55.6249 58.7846 55.5186 58.8585 55.4355C58.9324 55.3523 58.9648 55.3292 58.9694 55.3338C58.9419 55.3763 58.911 55.4165 58.877 55.4539L58.5998 55.7866L57.5187 57.0663C56.1727 58.6169 55.0172 60.323 54.0768 62.1483C53.7827 62.7564 53.5325 63.3848 53.3284 64.0287C53.1206 64.7314 52.9799 65.4523 52.908 66.1816C52.7258 67.7892 52.9828 69.4162 53.6518 70.8894C54.4335 72.5015 55.8198 73.7401 57.5095 74.3359C59.3307 74.9459 61.2729 75.1044 63.169 74.7979C65.0733 74.5055 66.9349 73.9827 68.713 73.2409C70.3775 72.5739 71.9819 71.7655 73.5085 70.8247C74.8991 69.9903 76.2023 69.0183 77.3986 67.9233C78.448 66.9824 79.2184 65.7708 79.6254 64.4214C79.9613 63.3057 79.8758 62.1055 79.3852 61.0488C78.9876 60.2658 78.3243 59.65 77.5141 59.3116C77.0053 59.0859 76.4456 58.9998 75.8925 59.0622C75.4951 59.1361 75.3057 59.2146 75.3057 59.2008Z" fill="#263238"/>
<path d="M93.0835 69.3001C93.0693 69.3866 93.0429 69.4706 93.005 69.5496C92.9219 69.787 92.8263 70.0199 92.7186 70.2472C92.3298 71.0887 91.8378 71.8787 91.254 72.5988C90.3932 73.6832 89.303 74.5636 88.0616 75.1767C86.5208 75.9235 84.7767 76.1411 83.0997 75.7958C82.2351 75.6149 81.4142 75.2665 80.6835 74.7702C80.3429 74.5333 80.0326 74.2555 79.7595 73.9432C79.6188 73.7922 79.4949 73.6265 79.3899 73.4489C79.2834 73.2803 79.1892 73.1043 79.108 72.9222C78.8101 72.2438 78.6169 71.5241 78.5352 70.7877C78.4558 70.1503 78.4372 69.5068 78.4797 68.8658C78.522 67.9403 78.6963 67.0255 78.9972 66.1493C79.0851 65.9125 79.1901 65.6824 79.3113 65.4609C79.3945 65.3069 79.4407 65.233 79.4499 65.2391C79.473 65.2391 79.2882 65.5625 79.0896 66.1631C78.819 67.0386 78.6637 67.9456 78.6276 68.8612C78.6012 69.4909 78.6306 70.1217 78.7153 70.7462C78.8018 71.4608 78.9949 72.1585 79.2882 72.8159C79.625 73.5308 80.1567 74.1361 80.8221 74.5623C81.5227 75.0338 82.3067 75.3677 83.1321 75.5463C83.9687 75.7134 84.8269 75.7431 85.6731 75.6341C86.4612 75.5288 87.2281 75.3012 87.9461 74.9596C89.1668 74.3693 90.2449 73.5213 91.1062 72.474C91.6944 71.7728 92.2012 71.0071 92.6169 70.1918C92.9311 69.6235 93.0651 69.3001 93.0835 69.3001Z" fill="#263238"/>
<path d="M107.119 63.8809C107.131 63.9667 107.131 64.0538 107.119 64.1396C107.119 64.3151 107.096 64.5646 107.064 64.8926C106.984 65.812 106.847 66.7255 106.653 67.6277C106.368 68.978 105.862 70.272 105.156 71.4577C104.288 72.9312 102.977 74.0924 101.409 74.7748C100.616 75.0987 99.7629 75.2462 98.9077 75.2071C98.0524 75.168 97.2159 74.9433 96.4563 74.5484C95.8017 74.1841 95.2416 73.6714 94.8208 73.0516C94.4434 72.5254 94.133 71.9543 93.8968 71.3514C93.5477 70.4874 93.3764 69.5619 93.3932 68.6302C93.4038 68.3775 93.4409 68.1267 93.5041 67.8818C93.5223 67.7951 93.5518 67.7112 93.5919 67.6323C93.3529 68.8701 93.5147 70.1518 94.0539 71.2913C94.2941 71.875 94.6044 72.4273 94.9779 72.9361C95.3897 73.523 95.9301 74.0081 96.5579 74.3544C97.2905 74.7266 98.0946 74.9369 98.9156 74.9712C99.7366 75.0055 100.555 74.8629 101.317 74.5531C102.84 73.8837 104.116 72.7524 104.962 71.3191C105.668 70.1608 106.182 68.8954 106.482 67.5722C106.684 66.6787 106.838 65.7749 106.944 64.8649C106.985 64.56 107.018 64.3151 107.045 64.1165C107.06 64.0352 107.085 63.956 107.119 63.8809Z" fill="#263238"/>
<path d="M198.42 50.9171C198.42 50.9171 198.35 50.8247 198.23 50.6399L197.685 49.8083C197.445 49.4433 197.168 48.9813 196.803 48.4592L195.472 46.7036C195.21 46.3556 194.931 46.021 194.636 45.7011L193.68 44.6154C193.361 44.2273 192.968 43.8762 192.585 43.4881C192.201 43.1 191.79 42.7073 191.374 42.2915C189.395 40.511 187.257 38.9136 184.989 37.5191C182.226 35.8529 179.281 34.509 176.211 33.5135C172.689 32.3725 169.023 31.7394 165.322 31.6332C161.23 31.5266 157.149 32.1012 153.245 33.3333C152.991 33.4119 152.732 33.4812 152.483 33.569L151.73 33.8508L150.219 34.419C149.711 34.6085 149.23 34.881 148.732 35.0797C148.233 35.2784 147.738 35.5417 147.249 35.7773C145.271 36.798 143.377 37.9736 141.584 39.2931C138.032 41.8852 134.929 45.0425 132.4 48.6394L131.517 49.9607C131.374 50.1779 131.217 50.3904 131.088 50.6168L130.695 51.3005L129.924 52.668C129.66 53.13 129.462 53.592 129.24 54.054C129.018 54.516 128.801 54.978 128.584 55.44C128.367 55.902 128.223 56.364 128.039 56.826C127.854 57.288 127.674 57.75 127.512 58.212C127.35 58.674 127.202 59.136 127.05 59.598C125.927 63.3402 125.156 67.0131 123.719 70.224C122.282 73.4349 120.263 76.1561 117.657 77.6622C115.052 79.1684 112.16 79.5102 109.905 78.7341C108.848 78.3952 107.895 77.7944 107.133 76.9877C106.492 76.3206 105.985 75.5364 105.641 74.6777C105.149 73.4849 105.044 72.168 105.34 70.9124C105.426 70.5928 105.546 70.2831 105.696 69.9884L105.853 69.6881C105.853 69.6881 105.812 69.799 105.719 69.9977C105.58 70.2945 105.468 70.6039 105.387 70.9217C105.115 72.1593 105.234 73.4509 105.729 74.6177C106.073 75.4657 106.578 76.2391 107.216 76.8953C107.969 77.6812 108.908 78.2644 109.947 78.5909C112.164 79.3347 115.029 79.002 117.57 77.5005C118.892 76.7021 120.054 75.665 120.998 74.4421C122.023 73.1181 122.877 71.6698 123.539 70.1316C124.957 66.9531 125.715 63.2848 126.837 59.5287C126.976 59.0667 127.128 58.6047 127.299 58.115C127.47 57.6253 127.65 57.191 127.831 56.729C128.011 56.267 128.191 55.805 128.376 55.3107L129.036 53.9247C129.263 53.4627 129.457 53.0007 129.72 52.5387L130.496 51.1527L130.884 50.4689C131.018 50.2379 131.176 50.0069 131.319 49.8036L132.21 48.4777C134.753 44.8561 137.875 41.6781 141.45 39.0714C143.252 37.7561 145.155 36.5866 147.142 35.574C147.632 35.3199 148.14 35.112 148.635 34.8718C149.129 34.6316 149.619 34.4098 150.131 34.2111L151.651 33.6383L152.404 33.3518C152.659 33.2687 152.917 33.1994 153.176 33.1208C157.103 31.8802 161.21 31.304 165.327 31.416C169.049 31.5297 172.736 32.1738 176.276 33.3287C179.356 34.3376 182.31 35.6955 185.082 37.3758C187.351 38.7859 189.487 40.4004 191.462 42.1991L192.654 43.4003C193.037 43.793 193.43 44.1441 193.749 44.5368C194.068 44.9295 194.391 45.2853 194.673 45.6318C194.967 45.9564 195.245 46.2956 195.504 46.6482L196.817 48.4176C197.177 48.9489 197.449 49.4156 197.685 49.8036L198.207 50.6491C198.369 50.82 198.42 50.9171 198.42 50.9171Z" fill="#263238"/>
<path d="M172.326 168.944C172.326 168.944 172.428 168.861 172.631 168.709L173.555 168.039C174.354 167.443 175.565 166.602 177.08 165.465C180.115 163.201 184.495 159.889 189.513 155.338C192.233 152.844 194.799 150.185 197.196 147.378C199.922 144.13 202.393 140.676 204.588 137.048C205.761 135.149 206.898 133.148 208.025 131.097C208.598 130.076 209.148 129.027 209.72 127.974C210.293 126.921 210.806 125.835 211.356 124.74C213.512 120.199 215.195 115.447 216.378 110.561C217.124 107.56 217.702 104.52 218.11 101.455C218.291 99.9445 218.494 98.4522 218.595 96.9646C218.651 96.2207 218.734 95.4862 218.766 94.747C218.799 94.0078 218.836 93.2824 218.873 92.5525C219.076 87.0271 218.852 81.4944 218.203 76.0036C217.921 73.4256 217.579 70.9216 216.757 68.6763C216.367 67.5767 215.821 66.5388 215.135 65.5947C214.475 64.697 213.662 63.9228 212.733 63.3079C211.857 62.7176 210.859 62.3352 209.813 62.1898C209.317 62.1159 208.812 62.1159 208.316 62.1898C207.831 62.2564 207.357 62.3869 206.907 62.5779C206.036 62.9316 205.266 63.495 204.666 64.218C204.113 64.8858 203.769 65.7023 203.677 66.565L203.645 66.9022L203.539 66.5788L200.416 56.7336C200.06 55.5971 199.783 54.7193 199.598 54.1233C199.506 53.8276 199.441 53.6059 199.39 53.4488C199.339 53.2917 199.325 53.2178 199.325 53.2178C199.325 53.2178 199.358 53.2917 199.409 53.4442L199.635 54.1094L200.485 56.7105C201.229 58.9928 202.305 62.3238 203.673 66.5372H203.539C203.628 65.6471 203.978 64.8031 204.546 64.1117C205.157 63.3731 205.941 62.7969 206.828 62.4347C207.289 62.2369 207.773 62.1017 208.27 62.0327C208.783 61.9565 209.304 61.9565 209.817 62.0327C210.89 62.1757 211.916 62.5629 212.816 63.1646C213.763 63.785 214.593 64.5669 215.269 65.4746C215.969 66.4343 216.527 67.4891 216.928 68.607C217.764 70.8847 218.106 73.3979 218.392 75.9759C219.057 81.4763 219.289 87.0204 219.085 92.5571C219.053 93.287 219.016 94.0216 218.984 94.7608C218.951 95.5 218.868 96.2346 218.813 96.983C218.711 98.4707 218.508 99.9676 218.351 101.483C217.938 104.557 217.358 107.606 216.613 110.617C215.422 115.517 213.732 120.282 211.568 124.837C211.014 125.927 210.492 127.018 209.928 128.071C209.365 129.124 208.801 130.173 208.228 131.194C207.087 133.245 205.955 135.246 204.772 137.154C202.578 140.785 200.106 144.242 197.38 147.493C194.976 150.306 192.403 152.969 189.674 155.468C185.692 159.038 181.528 162.401 177.2 165.544C175.676 166.666 174.461 167.498 173.647 168.076L172.723 168.727C172.456 168.875 172.326 168.944 172.326 168.944Z" fill="#263238"/>
<path d="M204.666 202.652C204.666 202.652 204.638 202.698 204.564 202.776C204.49 202.855 204.389 202.975 204.241 203.118C203.79 203.527 203.279 203.864 202.726 204.116C201.848 204.497 200.909 204.721 199.954 204.777C198.682 204.84 197.408 204.72 196.17 204.421C194.784 204.093 193.347 203.557 191.785 203.035C190.145 202.425 188.423 202.065 186.676 201.968C186.445 201.954 186.213 201.954 185.983 201.968C185.747 201.968 185.521 201.968 185.28 202.014C184.814 202.075 184.352 202.16 183.894 202.268C182.935 202.497 181.997 202.806 181.09 203.192C179.242 203.945 177.394 204.938 175.38 205.747C173.452 206.607 171.354 207.017 169.244 206.948C167.283 206.786 165.361 206.314 163.548 205.548C161.815 204.869 160.212 204.125 158.674 203.534C157.937 203.243 157.184 202.995 156.419 202.79C155.711 202.608 154.992 202.472 154.266 202.384C151.494 202.014 149.184 202.61 147.863 203.437C147.182 203.875 146.572 204.415 146.057 205.04C146.083 204.994 146.114 204.951 146.149 204.911L146.44 204.541C146.844 204.083 147.311 203.685 147.826 203.358C149.147 202.494 151.485 201.862 154.294 202.213C155.029 202.298 155.757 202.431 156.475 202.61C157.249 202.811 158.011 203.056 158.757 203.345C160.305 203.936 161.912 204.67 163.636 205.345C165.419 206.096 167.308 206.564 169.235 206.731C171.311 206.796 173.374 206.388 175.269 205.539C177.246 204.74 179.094 203.751 180.979 202.989C181.898 202.601 182.849 202.292 183.821 202.065C184.293 201.953 184.771 201.868 185.253 201.811C185.488 201.783 185.715 201.778 185.964 201.765C186.201 201.748 186.439 201.748 186.676 201.765C188.443 201.869 190.184 202.239 191.841 202.864C193.407 203.391 194.848 203.936 196.207 204.25C197.428 204.554 198.686 204.685 199.944 204.638C200.897 204.598 201.836 204.39 202.716 204.024C203.449 203.698 204.112 203.231 204.666 202.652Z" fill="#263238"/>
<path d="M91.8731 211.014C91.8731 211.014 91.8361 211.055 91.7622 211.129C91.6883 211.203 91.5728 211.314 91.4111 211.448C90.9331 211.823 90.4002 212.122 89.8311 212.335C88.9233 212.655 87.966 212.811 87.0036 212.797C85.7312 212.77 84.4693 212.56 83.2568 212.173C81.9078 211.753 80.4848 211.115 78.9741 210.487C77.3806 209.766 75.6877 209.287 73.9521 209.069C73.722 209.044 73.4906 209.033 73.2591 209.036C73.0281 209.036 72.7971 209.036 72.5569 209.036C72.0818 209.063 71.6084 209.114 71.1385 209.189C70.1657 209.353 69.2077 209.595 68.2741 209.914C66.3615 210.538 64.4488 211.397 62.4021 212.063C60.4192 212.787 58.2974 213.051 56.1975 212.834C54.2654 212.524 52.3944 211.912 50.6535 211.018C48.9764 210.215 47.4195 209.365 45.9364 208.667C45.2218 208.323 44.4875 208.023 43.7373 207.766C43.0429 207.535 42.3347 207.349 41.6167 207.207C38.8447 206.643 36.5347 207.078 35.1487 207.812C34.4374 208.202 33.7906 208.699 33.2314 209.286C33.2632 209.243 33.2971 209.201 33.3331 209.161L33.6519 208.815C34.0837 208.386 34.5755 208.022 35.1118 207.734C36.4978 206.962 38.8678 206.495 41.6491 207.045C42.3751 207.181 43.0912 207.364 43.7928 207.595C44.5515 207.849 45.295 208.147 46.0196 208.487C47.5257 209.184 49.078 210.03 50.7505 210.824C52.4746 211.7 54.3249 212.3 56.2344 212.603C58.3002 212.812 60.3865 212.552 62.3374 211.841C64.3656 211.18 66.2829 210.321 68.2141 209.693C69.1582 209.372 70.127 209.129 71.1108 208.967C71.5824 208.895 72.0573 208.848 72.5338 208.824C72.774 208.824 72.9958 208.824 73.2499 208.824C73.4859 208.821 73.722 208.831 73.9567 208.856C75.7145 209.082 77.4279 209.573 79.0387 210.312C80.5633 210.949 81.9632 211.591 83.2938 212.021C84.4889 212.411 85.7332 212.631 86.9898 212.672C87.9403 212.695 88.8876 212.553 89.7895 212.252C90.5569 211.976 91.2642 211.556 91.8731 211.014Z" fill="#263238"/>
<path d="M202.088 154.548C202.071 154.59 202.047 154.629 202.019 154.664L201.797 154.987L200.915 156.221C200.536 156.757 200.06 157.408 199.482 158.143C198.905 158.877 198.272 159.732 197.514 160.633L196.35 162.06C195.939 162.555 195.491 163.049 195.038 163.571C194.137 164.625 193.121 165.701 192.063 166.842C189.91 169.087 187.443 171.485 184.768 173.86C182.093 176.235 179.358 178.332 176.849 180.18C175.583 181.081 174.382 181.95 173.222 182.703C172.645 183.081 172.095 183.465 171.55 183.807L169.984 184.8C168.995 185.438 168.062 185.955 167.258 186.431C166.454 186.907 165.747 187.295 165.165 187.6L163.83 188.316L163.479 188.496C163.44 188.519 163.398 188.536 163.354 188.547L163.47 188.473L163.807 188.27L165.119 187.521C165.696 187.198 166.394 186.801 167.189 186.315C167.983 185.83 168.912 185.304 169.896 184.657L171.453 183.668C171.989 183.322 172.539 182.938 173.111 182.555C174.266 181.792 175.458 180.924 176.72 180.018C179.214 178.17 181.899 176.05 184.601 173.694C187.304 171.337 189.739 168.94 191.896 166.704C192.954 165.567 193.975 164.5 194.876 163.47C195.338 162.947 195.8 162.458 196.198 161.968L197.38 160.554C198.147 159.663 198.794 158.817 199.376 158.087C199.958 157.357 200.448 156.701 200.841 156.193L201.765 154.987L202.01 154.678C202.031 154.632 202.057 154.588 202.088 154.548Z" fill="#263238"/>
<path d="M95.1028 126.68C95.0694 126.747 95.0324 126.812 94.9919 126.874L94.65 127.419C94.468 127.72 94.2674 128.008 94.0494 128.283C93.7686 128.671 93.4679 129.044 93.1485 129.401L92.5756 130.039C92.3677 130.256 92.1367 130.469 91.9011 130.7L91.5361 131.051L91.1342 131.388C90.8616 131.614 90.5844 131.85 90.2795 132.095C88.8979 133.161 87.4156 134.089 85.8535 134.867C83.9648 135.807 82.0081 136.604 80 137.251C78.9143 137.597 77.7916 137.939 76.6227 138.244C75.4539 138.549 74.2342 138.822 72.996 139.122C67.5893 140.333 62.1114 141.2 56.5951 141.718C50.7276 142.282 45.1143 142.499 40.0092 142.564C34.9041 142.628 30.3072 142.541 26.4495 142.43C22.5918 142.319 19.4687 142.199 17.3158 142.111L14.8302 141.995L14.1881 141.963C14.1138 141.959 14.0398 141.952 13.9663 141.94H14.1881H14.8349L17.3204 142.005L26.4542 142.254C30.3119 142.342 34.9041 142.402 40.0046 142.333C45.1051 142.263 50.7138 142.032 56.5719 141.469C62.0777 140.951 67.546 140.091 72.9452 138.895C74.1834 138.6 75.4031 138.346 76.5673 138.032C77.7315 137.717 78.8773 137.394 79.9353 137.052C81.9381 136.418 83.8903 135.633 85.775 134.705C87.3332 133.947 88.8139 133.038 90.1963 131.993C90.5058 131.771 90.7784 131.531 91.0556 131.3C91.1881 131.186 91.3221 131.075 91.4576 130.968L91.8225 130.621C92.0582 130.395 92.2845 130.159 92.5017 129.974L93.0792 129.346C93.4534 128.958 93.7306 128.57 94.0032 128.246C94.2242 127.975 94.4294 127.691 94.6176 127.396L94.9826 126.865L95.1028 126.68Z" fill="#263238"/>
<path d="M72.0704 195.537C52.0475 203.882 35.4104 205.415 16.8952 202.647C14.2112 202.244 11.4557 201.698 9.23305 200.145C7.01044 198.591 5.45722 195.771 6.17859 193.158C6.76999 191.027 8.64815 189.539 10.4548 188.271C30.3673 174.273 54.3546 167.52 77.9194 161.418C99.0926 155.939 120.643 150.747 142.511 151.111C144.5 151.143 146.794 151.377 147.938 153.015C149.004 154.549 148.529 156.758 147.34 158.214C146.151 159.67 144.416 160.515 142.739 161.334L72.0704 195.537Z" fill="#377AFF"/>
<g opacity="0.3">
<path d="M52.6194 169.646C52.4706 169.733 52.3165 169.812 52.158 169.88L50.8127 170.53C49.6429 171.063 47.9402 171.83 45.8281 172.7C41.6039 174.501 35.7094 176.853 29.2691 179.615C22.8287 182.377 17.1032 185.133 13.1974 187.518C11.651 188.436 10.321 189.678 9.29809 191.157C8.95276 191.722 8.6612 192.318 8.42725 192.938C8.56935 192.281 8.82443 191.655 9.18111 191.086C10.184 189.555 11.5162 188.267 13.0804 187.316C16.9797 184.86 22.7117 182.117 29.1521 179.303C35.5924 176.489 41.4999 174.221 45.7501 172.479L50.7737 170.406L52.145 169.847C52.2947 169.762 52.454 169.694 52.6194 169.646Z" fill="#475467"/>
</g>
<path d="M33.8832 204.083C33.6242 203.862 33.383 203.621 33.1618 203.362C32.7199 202.881 32.083 202.179 31.3097 201.301C29.75 199.553 27.6378 197.103 25.3307 194.38L19.4363 187.394C18.7149 186.536 18.1365 185.821 17.6621 185.269C17.4265 185.016 17.2093 184.747 17.0122 184.463C17.2754 184.679 17.517 184.921 17.7336 185.184C18.1755 185.665 18.8124 186.367 19.5923 187.238C21.1455 188.993 23.2576 191.436 25.5647 194.159L31.4591 201.145L33.2398 203.271C33.4756 203.524 33.6907 203.795 33.8832 204.083Z" fill="#475467"/>
<path d="M53.1259 201.483C53.0544 201.542 48.1088 196.018 42.0779 189.135C36.047 182.253 31.1988 176.632 31.2703 176.573C31.3418 176.515 36.2939 182.032 42.3184 188.921C48.3428 195.81 53.1714 201.425 53.1259 201.483Z" fill="#475467"/>
<path d="M69.5102 196.584C69.4387 196.649 64.3501 190.832 58.1437 183.586C51.9373 176.34 46.9527 170.432 47.0242 170.374C47.0957 170.315 52.2233 176.125 58.3972 183.372C64.5711 190.618 69.5817 196.525 69.5102 196.584Z" fill="#475467"/>
<path d="M84.4835 189.545C84.412 189.61 80.0773 184.677 74.8002 178.529C69.5231 172.381 65.3054 167.345 65.3769 167.286C65.4484 167.228 69.7831 172.16 75.0602 178.334C80.3372 184.508 84.555 189.46 84.4835 189.545Z" fill="#475467"/>
<path d="M99.3129 182.331C99.2414 182.39 95.0237 177.594 89.8961 171.615C84.7685 165.636 80.6677 160.749 80.7392 160.684C80.8107 160.619 85.0219 165.421 90.156 171.4C95.2901 177.379 99.4104 182.266 99.3129 182.331Z" fill="#475467"/>
<path d="M113.974 175.247C113.738 175.051 113.521 174.833 113.325 174.597C112.902 174.149 112.311 173.486 111.589 172.648C110.14 170.997 108.19 168.683 106.072 166.097C103.953 163.51 102.069 161.223 100.639 159.487L98.9881 157.486C98.7716 157.251 98.5779 156.997 98.4097 156.725C98.6453 156.922 98.8628 157.14 99.0596 157.375C99.4755 157.824 100.067 158.48 100.795 159.325C102.244 160.969 104.194 163.283 106.312 165.876L111.745 172.485L113.396 174.48C113.615 174.715 113.809 174.972 113.974 175.247Z" fill="#475467"/>
<path d="M129.059 167.943C128.848 167.781 128.656 167.595 128.487 167.391C128.142 167.02 127.642 166.481 127.037 165.805C125.822 164.453 124.178 162.556 122.391 160.437L117.842 155.01L116.47 153.353C116.29 153.155 116.133 152.937 116.002 152.703C116.21 152.867 116.4 153.052 116.568 153.256C116.919 153.62 117.413 154.166 118.024 154.841C119.232 156.193 120.883 158.091 122.664 160.21L127.213 165.636L128.584 167.293C128.764 167.493 128.923 167.711 129.059 167.943Z" fill="#475467"/>
<path d="M143.908 160.742C143.437 160.348 143.002 159.913 142.608 159.443C141.835 158.591 140.763 157.422 139.658 156.05C138.553 154.679 137.507 153.49 136.779 152.599C136.358 152.14 135.98 151.644 135.648 151.118C136.116 151.515 136.551 151.949 136.948 152.417C137.721 153.269 138.793 154.439 139.905 155.81C141.016 157.181 142.049 158.37 142.777 159.261C143.198 159.719 143.577 160.215 143.908 160.742Z" fill="#475467"/>
<g opacity="0.3">
<path d="M108.535 157.266C107.333 159.105 108.425 161.691 110.166 163.024C111.908 164.356 114.137 164.869 116.165 165.708C118.192 166.546 119.947 167.657 121.962 168.359C123.976 169.061 126.329 169.172 128.11 168.008C129.247 167.261 130.059 165.831 129.656 164.531C129.286 163.349 128.071 162.673 126.946 162.146C121.722 159.694 116.224 157.873 110.569 156.72" fill="black"/>
</g>
<g opacity="0.3">
<path d="M55.4659 172.298C55.3354 180.057 56.2913 187.796 58.3059 195.291C58.4523 196.102 58.7787 196.871 59.2612 197.539C60.6909 199.242 63.3815 198.735 65.5001 198.079C67.2457 197.616 68.9251 196.932 70.4977 196.045C72.0824 195.14 73.2613 193.663 73.7926 191.918C74.4425 189.351 73.1427 186.719 71.843 184.444C69.1979 179.771 66.3644 175.073 62.3027 171.557C61.1394 170.55 59.7551 169.607 58.2149 169.646C56.6746 169.685 55.1214 171.147 55.5568 172.623" fill="black"/>
</g>
<path d="M147.814 152.502C147.814 152.502 147.769 152.625 147.665 152.872C147.514 153.237 147.343 153.593 147.151 153.938C146.42 155.27 145.486 156.481 144.383 157.526C142.617 159.155 140.627 160.525 138.475 161.594C137.228 162.244 135.876 162.848 134.414 163.504L129.864 165.578C117.036 171.388 99.4498 179.713 79.9078 188.662C70.7716 193.017 61.1573 196.288 51.2609 198.41C46.9401 199.313 42.5727 199.977 38.1787 200.398C34.3474 200.731 30.5011 200.859 26.6562 200.782C25.7724 200.782 24.9145 200.71 24.0567 200.671C23.1988 200.632 22.406 200.613 21.6131 200.528L19.3125 200.307C18.5652 200.249 17.8438 200.171 17.1549 200.061L15.1468 199.775C14.4969 199.69 13.847 199.606 13.2946 199.469C12.2167 199.251 11.1677 198.909 10.1687 198.449C8.36197 197.63 7.22467 196.441 6.84774 195.459L6.70476 195.121C6.70476 195.011 6.64628 194.907 6.62028 194.809C6.56933 194.652 6.53876 194.488 6.5293 194.322C6.5293 194.062 6.5293 193.926 6.5293 193.926C6.59727 194.444 6.73499 194.951 6.93872 195.433C7.33515 196.389 8.46595 197.532 10.2596 198.332C11.2536 198.772 12.2932 199.101 13.3596 199.313C13.9445 199.437 14.5619 199.521 15.2053 199.606L17.2069 199.872C17.9023 199.976 18.6172 200.048 19.3645 200.106L21.6651 200.314C22.4515 200.392 23.2703 200.398 24.1022 200.444C24.934 200.489 25.7919 200.548 26.7017 200.548C30.5366 200.605 34.3718 200.462 38.1917 200.119C42.5728 199.685 46.927 199.013 51.2349 198.104C61.1131 195.978 70.7096 192.706 79.8298 188.356C99.3134 179.407 116.86 171.115 129.741 165.363L134.329 163.303C135.778 162.653 137.143 162.062 138.384 161.425C140.532 160.378 142.521 159.032 144.292 157.428C145.394 156.399 146.338 155.212 147.093 153.906C147.359 153.457 147.515 153.1 147.632 152.859C147.749 152.619 147.814 152.502 147.814 152.502Z" fill="#263238"/>
<path d="M82.2868 78.0183C80.948 79.669 73.3834 83.1069 73.5003 91.4059C73.6173 99.705 88.2657 127.039 88.2657 127.039L60.1582 165.701L68.8862 173.447L101.166 136.255C102.458 134.764 103.416 133.015 103.977 131.124C104.537 129.233 104.687 127.244 104.415 125.291L101.4 103.513L82.2868 78.0183Z" fill="white"/>
<path d="M61.5481 164.2C61.1647 164.571 56.9989 168.749 56.9989 168.749C56.9989 168.749 54.9713 171.284 55.4197 171.797C57.1744 173.805 71.5499 186.563 71.5499 186.563C71.5499 186.563 73.3111 186.836 71.6019 181.903C69.8927 176.97 68.8853 173.455 68.8853 173.455L72.6547 169.107L61.5481 164.2Z" fill="white"/>
<path d="M153.403 60.751L169.495 76.5367L197.368 82.2947L195.769 91.0031L165.569 87.1363L144.416 73.1248L153.403 60.751Z" fill="white"/>
<path d="M195.561 82.5414C196.016 82.2425 196.536 81.8915 197.128 81.4171C197.636 81.0148 198.075 80.5318 198.427 79.9874C198.888 79.3223 199.257 78.5989 199.526 77.8363C199.546 77.682 199.615 77.5383 199.723 77.4261C199.831 77.314 199.972 77.2394 200.125 77.2132C200.278 77.1871 200.436 77.2107 200.575 77.2808C200.714 77.3508 200.827 77.4635 200.897 77.6023C201.144 78.2522 201.014 80.4813 199.545 82.366C199.476 82.4885 199.435 82.6245 199.423 82.7647C199.412 82.9048 199.431 83.0458 199.479 83.1779C199.527 83.31 199.603 83.4301 199.702 83.5301C199.801 83.63 199.921 83.7073 200.052 83.7567C201.514 84.5041 206.707 86.8437 207.526 87.3636C208.345 87.8835 208.93 88.5723 208.098 88.6048C207.266 88.6373 202.899 87.4545 202.899 87.4545C202.899 87.4545 208.67 88.8908 208.423 89.7226C208.247 90.2945 206.636 90.3725 202.912 89.0728C202.912 89.0728 207.662 90.2945 208.111 90.8599C209.112 92.1597 203.386 90.73 203.386 90.73C207.383 91.7568 207.37 91.5358 207.344 92.1012C207.344 92.5236 206.389 92.5756 204.153 92.3287C202.333 92.1337 194.535 90.8275 194.535 90.8275" fill="white"/>
<path d="M200.942 90.1514C201.806 90.5396 202.717 90.8127 203.652 90.9637C204.562 91.2379 205.504 91.3887 206.453 91.4121C205.587 91.0248 204.674 90.7518 203.737 90.5998C202.83 90.3247 201.89 90.1738 200.942 90.1514Z" fill="#AA6550"/>
<path d="M201.17 88.5725C202.074 89.0282 203.03 89.3729 204.016 89.5993C204.967 89.9354 205.956 90.1536 206.96 90.2492C206.993 90.1452 205.719 89.6838 204.12 89.2159C203.168 88.8788 202.176 88.6627 201.17 88.5725Z" fill="#AA6550"/>
<path d="M201.423 86.9343C202.266 87.3875 203.164 87.7304 204.094 87.9546C204.99 88.2875 205.925 88.5059 206.876 88.6045C206.034 88.1481 205.136 87.805 204.205 87.5842C203.31 87.2477 202.375 87.0292 201.423 86.9343Z" fill="#AA6550"/>
<path d="M100.613 101.623C101.081 102.181 124.49 118.52 124.49 118.52L112.961 147.569L124.353 149.662L140.77 122.776C142.224 120.583 142.778 117.913 142.315 115.322C141.853 112.731 140.41 110.417 138.287 108.862L110.654 88.6638L100.074 99.8093" fill="white"/>
<path d="M112.961 147.57C112.805 148.083 108.659 156.453 108.659 156.453C108.659 156.453 108.126 159.651 108.769 159.878C111.278 160.769 130.053 164.883 130.053 164.883C130.053 164.883 131.73 164.233 127.824 160.788C123.918 157.344 121.325 154.757 121.325 154.757L125.432 147.83L112.961 147.57Z" fill="white"/>
<path d="M126.654 122.685C126.654 122.685 126.745 122.744 126.888 122.887C127.096 123.085 127.286 123.303 127.453 123.537C128.069 124.431 128.451 125.466 128.565 126.546C128.732 128.148 128.483 129.766 127.843 131.244C127.005 133.018 125.813 134.602 124.34 135.897C122.89 137.185 121.371 138.393 119.791 139.517C118.516 140.441 117.3 141.443 116.152 142.52C115.387 143.25 114.693 144.051 114.079 144.911C113.643 145.561 113.429 145.893 113.429 145.88C113.457 145.781 113.499 145.688 113.552 145.6C113.681 145.339 113.824 145.085 113.981 144.84C114.56 143.939 115.235 143.105 115.996 142.351C117.13 141.241 118.339 140.212 119.616 139.27C121.032 138.185 122.625 137.041 124.126 135.651C125.565 134.379 126.736 132.832 127.57 131.101C128.204 129.673 128.468 128.109 128.337 126.552C128.247 125.501 127.911 124.486 127.356 123.589C126.94 122.991 126.608 122.711 126.654 122.685Z" fill="#263238"/>
<path d="M125.426 134.545C125.57 134.123 125.672 133.688 125.731 133.246C125.761 132.773 125.692 132.3 125.53 131.855C125.436 131.594 125.305 131.349 125.14 131.127C125.057 131.012 124.963 130.906 124.86 130.809C124.781 130.729 124.674 130.682 124.561 130.679C124.438 130.679 124.321 131.062 124.256 131.328C124.2 131.598 124.178 131.873 124.191 132.147C124.229 132.608 124.376 133.054 124.62 133.447C124.882 133.806 125.18 134.137 125.51 134.435C125.057 134.293 124.671 133.99 124.425 133.584C124.119 133.162 123.933 132.666 123.886 132.147C123.851 131.841 123.869 131.531 123.938 131.231C123.97 131.072 124.016 130.915 124.074 130.763C124.101 130.657 124.156 130.56 124.234 130.484C124.312 130.407 124.41 130.353 124.516 130.328C125.023 130.328 125.211 130.692 125.406 130.919C125.587 131.169 125.727 131.445 125.822 131.738C125.99 132.226 126.039 132.748 125.965 133.259C125.942 133.738 125.751 134.193 125.426 134.545Z" fill="#263238"/>
<path d="M127.811 131.342C127.942 130.891 128.221 130.497 128.603 130.224C128.996 129.903 129.459 129.68 129.955 129.574C130.573 129.437 131.217 129.475 131.814 129.684L132.041 129.762L131.892 129.944C131.541 130.389 131.105 130.76 130.609 131.035C130.114 131.311 129.569 131.486 129.006 131.55C128.548 131.635 128.074 131.587 127.642 131.413C127.642 131.355 128.168 131.459 128.974 131.316C130.013 131.131 130.95 130.577 131.612 129.756L131.69 130.016C131.2 129.844 130.675 129.794 130.162 129.87C129.648 129.946 129.16 130.145 128.74 130.451C128.407 130.723 128.096 131.021 127.811 131.342Z" fill="#263238"/>
<path d="M128.194 127.403C128.142 127.403 128.149 127.091 127.934 126.676C127.798 126.415 127.592 126.196 127.34 126.044C127.088 125.891 126.799 125.811 126.504 125.811H126.433L126.576 125.577C126.969 126.344 127.531 127.01 128.22 127.527C128.22 127.559 127.902 127.488 127.492 127.208C126.952 126.834 126.526 126.316 126.264 125.714L126.167 125.486H126.504C126.859 125.482 127.206 125.585 127.501 125.783C127.796 125.98 128.024 126.262 128.155 126.591C128.337 127.085 128.233 127.416 128.194 127.403Z" fill="#263238"/>
<path d="M128.103 124.881C128.324 124.298 128.436 123.679 128.434 123.055L128.746 123.133C128.461 123.691 128.28 124.297 128.213 124.92C128.174 124.92 128.077 124.712 128.07 124.342C128.061 123.849 128.199 123.365 128.467 122.951L128.733 122.522L128.779 123.023C128.823 123.51 128.726 123.999 128.499 124.433C128.317 124.758 128.135 124.907 128.103 124.881Z" fill="#263238"/>
<path d="M121.903 137.717C122.835 137.559 123.792 137.658 124.672 138.003C125.254 138.249 125.732 138.691 126.024 139.251L126.095 139.413L125.933 139.478L125.842 139.517C125.25 139.747 124.605 139.801 123.983 139.673C123.48 139.571 123.01 139.348 122.612 139.024C122.227 138.755 121.944 138.363 121.812 137.912C122.101 138.247 122.418 138.556 122.761 138.835C123.184 139.139 123.676 139.332 124.193 139.397C124.709 139.462 125.234 139.396 125.718 139.206H125.803L125.712 139.433C125.457 138.942 125.045 138.551 124.542 138.322C124.119 138.129 123.67 138 123.21 137.938C122.768 137.906 122.331 137.832 121.903 137.717Z" fill="#263238"/>
<path d="M116.099 142.422C116.647 142.327 117.205 142.314 117.756 142.383C118.368 142.423 118.968 142.568 119.531 142.812C120.249 143.108 120.837 143.652 121.188 144.345L121.266 144.508L121.103 144.573L120.986 144.618C120.258 144.902 119.464 144.969 118.699 144.813C118.078 144.686 117.496 144.412 117.003 144.014C116.674 143.749 116.393 143.43 116.171 143.072C116.021 142.818 115.969 142.662 115.989 142.649C116.328 143.084 116.716 143.479 117.146 143.825C117.676 144.208 118.294 144.453 118.943 144.537C119.592 144.621 120.252 144.541 120.863 144.306L120.973 144.261L120.882 144.488C120.561 143.868 120.039 143.375 119.401 143.091C118.871 142.849 118.308 142.689 117.73 142.617C117.183 142.586 116.638 142.521 116.099 142.422Z" fill="#263238"/>
<path d="M118.414 140.381C118.709 140.003 118.977 139.603 119.213 139.185C119.455 138.73 119.639 138.245 119.759 137.743C119.892 137.131 119.878 136.496 119.72 135.89L119.98 135.988H119.934C119.472 136.33 119.089 136.768 118.811 137.272C118.533 137.775 118.366 138.332 118.323 138.906C118.318 139.391 118.349 139.875 118.414 140.355C118.157 139.913 118.044 139.402 118.089 138.893C118.099 138.272 118.254 137.661 118.54 137.11C118.827 136.558 119.237 136.081 119.739 135.715H119.785L119.98 135.572L120.045 135.812C120.21 136.472 120.21 137.161 120.045 137.821C119.9 138.345 119.682 138.846 119.395 139.309C118.946 140.102 118.433 140.42 118.414 140.381Z" fill="#263238"/>
<path d="M109.894 153.372C109.894 153.372 116.913 155.732 121.306 154.757L123.477 151.091L111.74 149.629L109.894 153.372Z" fill="#263238"/>
<path d="M119.284 47.7791C118.55 48.4289 82.2861 78.0182 82.2861 78.0182C82.2861 78.0182 86.4779 93.8364 110.628 88.6633L132.626 79.9419C134.668 79.138 136.627 78.1368 138.475 76.9524L144.441 73.1246L153.676 61.2317C151.993 57.8003 149.198 54.1674 144.064 52.6922L131.346 49.3648L119.284 47.7791Z" fill="#377AFF"/>
<path d="M87.4009 126.636L73.8248 97.0923C72.6429 94.2832 72.4386 91.1586 73.2447 88.2195C74.0507 85.2805 75.8204 82.6972 78.27 80.8841L83.4366 77.0498L114.631 87.084L140.198 110.688L123.781 118.889L102.283 102.779L104.317 122.132L87.4009 126.636Z" fill="#377AFF"/>
<path d="M89.5002 125.733C89.5002 125.733 76.2881 95.377 76.0736 91.4127C75.8592 87.4484 76.1126 87.0325 77.2629 84.8034C78.4132 82.5742 111.707 59.5488 111.707 59.5488H116.003L80.1354 85.3363C78.9765 86.9648 78.5092 88.9858 78.8356 90.9578C79.4855 94.0642 92.2883 125.285 92.2883 125.285L89.5002 125.733Z" fill="#101828"/>
<path d="M100.554 92.1206C100.983 93.9349 101.304 95.773 101.516 97.6251C101.842 99.4606 102.059 101.314 102.166 103.175C101.73 101.362 101.408 99.5239 101.204 97.6706C100.877 95.8352 100.66 93.9819 100.554 92.1206Z" fill="#263238"/>
<path d="M119.259 82.9644C118.946 83.127 118.62 83.2618 118.284 83.3673C117.634 83.6077 116.718 83.9262 115.554 84.2901C109.496 86.17 103.23 87.3006 96.8962 87.6565C95.6809 87.7215 94.6996 87.7475 94.0172 87.7475C93.6659 87.7632 93.314 87.7523 92.9644 87.715C93.3093 87.6498 93.6596 87.6172 94.0107 87.6175C94.6606 87.5785 95.6679 87.5136 96.8767 87.4161C99.2942 87.2276 102.628 86.8637 106.268 86.2138C109.907 85.5639 113.156 84.7255 115.483 84.0562C116.653 83.7247 117.595 83.4453 118.238 83.2438C118.571 83.1237 118.912 83.0303 119.259 82.9644Z" fill="#263238"/>
<path d="M117.783 86.4342C117.783 86.5252 113.76 87.1946 108.769 87.9225C103.778 88.6504 99.7163 89.1768 99.6708 89.0793C99.6253 88.9818 103.694 88.3189 108.691 87.591C113.689 86.8632 117.77 86.3368 117.783 86.4342Z" fill="#263238"/>
<g opacity="0.3">
<path d="M96.9478 66.1323C97.108 66.9458 97.4912 67.6988 98.0547 68.307C98.6182 68.9153 99.3397 69.3549 100.139 69.5766C101.75 69.9961 103.441 69.9961 105.052 69.5766C111.198 68.3088 116.662 64.8225 120.402 59.7829C115.203 58.7951 109.679 57.4303 104.837 59.6074L96.9478 66.1063" fill="black"/>
</g>
<path opacity="0.3" d="M101.01 95.293L120.402 116.369L102.264 102.786L101.01 95.293Z" fill="black"/>
<g opacity="0.2">
<path d="M99.249 87.1886C98.3651 87.351 97.5918 86.3307 97.7672 85.4534C97.8928 85.0222 98.1354 84.6342 98.4681 84.3325C98.8007 84.0308 99.2105 83.8271 99.6519 83.7442C100.536 83.5881 101.439 83.5684 102.329 83.6857C108.777 84.0595 115.128 81.9844 120.11 77.8757C120.758 77.23 121.536 76.7294 122.391 76.407C123.269 76.16 124.068 75.6141 124.387 76.472C124.529 77.0635 124.534 77.6797 124.401 78.2734C124.268 78.8671 124.001 79.4224 123.62 79.8969C120.37 82.9968 116.055 84.8555 111.662 85.8693C107.269 86.8831 102.745 87.1106 98.2417 87.3315" fill="black"/>
</g>
<path d="M140.334 24.1431C138.489 24.403 137.319 26.2227 136.435 27.8734C135.551 29.5241 134.518 31.3698 132.705 31.8052C131.203 32.1691 129.325 31.5323 128.292 32.6696C128.048 32.9373 127.892 33.2744 127.848 33.6342C127.804 33.994 127.872 34.3587 128.044 34.6778C128.216 34.9968 128.483 35.2546 128.808 35.4152C129.133 35.5759 129.5 35.6316 129.858 35.5745C129.345 35.9507 128.963 36.4791 128.767 37.0845C128.571 37.69 128.571 38.3418 128.766 38.9474C129.247 40.1237 130.956 40.6956 131.892 39.8378C131.741 39.9823 131.62 40.1562 131.538 40.3489C131.456 40.5415 131.415 40.7489 131.415 40.9582C131.416 41.1676 131.46 41.3746 131.543 41.5666C131.627 41.7586 131.749 41.9315 131.901 42.0749C132.054 42.2182 132.234 42.3289 132.431 42.4002C132.628 42.4716 132.837 42.502 133.046 42.4897C133.255 42.4774 133.459 42.4226 133.647 42.3287C133.834 42.2347 134 42.1037 134.134 41.9434" fill="#263238"/>
<path d="M152.005 46.5248C151.956 46.7667 151.956 47.0161 152.005 47.2581C152.054 47.5001 152.15 47.73 152.289 47.9341C152.428 48.1383 152.606 48.3126 152.814 48.4469C153.021 48.5811 153.253 48.6726 153.496 48.7159C153.739 48.7593 153.988 48.7536 154.229 48.6992C154.47 48.6448 154.697 48.5428 154.898 48.3992C155.099 48.2556 155.269 48.0733 155.398 47.863C155.528 47.6527 155.614 47.4187 155.651 47.1747C155.768 46.4013 155.398 45.5564 155.762 44.8676C156.191 44.0357 157.361 43.9902 158.296 44.1072C159.232 44.2242 160.35 44.3152 160.935 43.5808C161.52 42.8464 161.201 41.8391 160.935 40.9813C160.668 40.1234 160.642 38.9536 161.429 38.5052C161.866 38.3501 162.316 38.2348 162.774 38.1608C163.243 37.9467 163.613 37.5627 163.81 37.0861C164.007 36.6096 164.015 36.0762 163.833 35.5937C163.632 35.1188 163.333 34.691 162.957 34.3375C162.581 33.9839 162.136 33.7124 161.65 33.5401C160.679 33.2003 159.689 32.9161 158.686 32.6887C157.055 32.1996 155.543 31.3785 154.244 30.2769C152.946 29.1752 151.889 27.8169 151.141 26.2874" fill="#263238"/>
<path d="M137.598 30.8562L130.294 50.6127C129.987 51.4386 129.847 52.3169 129.882 53.1972C129.916 54.0774 130.125 54.9421 130.495 55.7414C130.865 56.5407 131.39 57.2587 132.039 57.8542C132.689 58.4496 133.449 58.9106 134.277 59.2107C135.848 59.7815 137.575 59.7431 139.119 59.1031C140.662 58.4631 141.91 57.2679 142.615 55.7533C143.395 54.0831 144.039 52.6923 144.039 52.6923C144.039 52.6923 149.205 54.1416 151.467 49.3454C152.559 47.0253 154.424 42.0667 156.055 37.5565C156.899 35.2216 156.832 32.6546 155.869 30.3665C154.905 28.0784 153.116 26.237 150.856 25.2087L150.388 25.0007C149.165 24.5269 147.86 24.3029 146.55 24.342C145.239 24.3811 143.949 24.6825 142.757 25.2283C141.565 25.7741 140.494 26.5534 139.608 27.52C138.722 28.4867 138.039 29.6211 137.598 30.8562Z" fill="white"/>
<path d="M144.077 52.6272C141.829 51.652 139.922 50.03 138.599 47.9675C138.599 47.9675 138.501 52.1203 143.518 53.8815L144.077 52.6272Z" fill="#AA6550"/>
<path d="M152.65 39.942C152.57 40.1226 152.422 40.2646 152.239 40.3375C152.055 40.4104 151.85 40.4084 151.668 40.3319C151.578 40.2988 151.495 40.2479 151.425 40.1823C151.354 40.1166 151.298 40.0376 151.258 39.9498C151.219 39.862 151.198 39.7672 151.195 39.671C151.193 39.5747 151.21 39.4791 151.246 39.3896C151.326 39.209 151.473 39.0666 151.656 38.9926C151.839 38.9186 152.044 38.9188 152.227 38.9932C152.318 39.0262 152.402 39.0774 152.473 39.1434C152.544 39.2095 152.6 39.2893 152.64 39.3778C152.679 39.4664 152.701 39.562 152.702 39.6589C152.704 39.7559 152.686 39.8521 152.65 39.942Z" fill="#263238"/>
<path d="M153.936 39.454C153.812 39.506 153.468 38.8821 152.721 38.5442C151.973 38.2063 151.271 38.3297 151.232 38.1998C151.193 38.0698 151.369 38.0178 151.687 37.9593C152.107 37.8831 152.541 37.9375 152.929 38.1153C153.315 38.2913 153.635 38.5847 153.845 38.9536C153.994 39.2331 154.001 39.4216 153.936 39.454Z" fill="#263238"/>
<path d="M145.455 36.7643C145.374 36.9437 145.226 37.0846 145.043 37.1573C144.86 37.2301 144.656 37.2289 144.474 37.1542C144.383 37.1211 144.299 37.07 144.228 37.0039C144.157 36.9378 144.1 36.8581 144.061 36.7695C144.021 36.681 144 36.5854 143.999 36.4884C143.997 36.3915 144.015 36.2952 144.051 36.2054C144.131 36.0248 144.279 35.8828 144.462 35.8099C144.646 35.737 144.851 35.7389 145.033 35.8154C145.123 35.8493 145.206 35.9008 145.277 35.967C145.347 36.0333 145.404 36.1129 145.443 36.2012C145.482 36.2896 145.503 36.3848 145.506 36.4815C145.508 36.5782 145.49 36.6743 145.455 36.7643Z" fill="#263238"/>
<path d="M146.586 36.2634C146.456 36.3154 146.112 35.6915 145.371 35.3536C144.63 35.0156 143.915 35.1391 143.876 35.0156C143.837 34.8922 144.013 34.8337 144.331 34.7687C144.754 34.6922 145.19 34.749 145.579 34.9311C145.968 35.1032 146.29 35.3976 146.496 35.7695C146.645 36.0489 146.645 36.2439 146.586 36.2634Z" fill="#263238"/>
<path d="M146.755 42.9964C147.201 43.0503 147.638 43.1617 148.055 43.3278C148.25 43.3928 148.445 43.4383 148.536 43.3278C148.643 43.1411 148.689 42.9248 148.666 42.7104C148.696 42.1689 148.728 41.6035 148.763 41.0142C148.802 39.5548 148.959 38.1009 149.231 36.6665C149.306 38.1252 149.267 39.5876 149.114 41.0402C149.075 41.6316 149.029 42.197 148.99 42.7364C149.006 43.0188 148.921 43.2976 148.75 43.5228C148.692 43.576 148.623 43.6158 148.547 43.6393C148.472 43.6629 148.393 43.6697 148.315 43.6593C148.196 43.6401 148.08 43.6051 147.97 43.5553C147.543 43.4214 147.135 43.2336 146.755 42.9964Z" fill="#263238"/>
<path d="M144.35 42.5092C144.474 42.5612 144.11 43.3671 144.539 44.2509C144.968 45.1347 145.839 45.4402 145.839 45.5507C145.839 45.6612 145.572 45.6157 145.189 45.4597C144.714 45.2513 144.328 44.8834 144.097 44.4199C143.88 43.9719 143.843 43.4581 143.993 42.9836C144.116 42.6717 144.298 42.4832 144.35 42.5092Z" fill="#263238"/>
<path d="M148.1 33.4496C147.938 33.6121 147.243 33.1832 146.326 32.8907C145.41 32.5983 144.591 32.5138 144.559 32.2798C144.559 32.1693 144.76 32.0329 145.13 31.9679C145.618 31.8974 146.114 31.9442 146.58 32.1044C147.05 32.2513 147.479 32.5099 147.828 32.8582C148.087 33.1312 148.178 33.3651 148.1 33.4496Z" fill="#263238"/>
<path d="M154.645 37.1803C154.437 37.2908 153.995 36.8813 153.397 36.5954C152.799 36.3094 152.207 36.1924 152.168 35.9455C152.168 35.835 152.318 35.705 152.617 35.653C153.008 35.5932 153.409 35.6592 153.761 35.8415C154.119 36.013 154.416 36.2896 154.612 36.6344C154.749 36.9203 154.742 37.1283 154.645 37.1803Z" fill="#263238"/>
<path d="M145.254 27.9509H145.221C144.176 28.2049 143.268 28.8519 142.687 29.7576L142.628 29.8486C141.81 31.1484 141.205 32.5586 140.38 33.8389C139.621 35.1823 138.433 36.2325 137.007 36.8219C136.409 37.0168 135.545 36.9518 135.415 36.3344C135.387 36.0927 135.425 35.8479 135.525 35.6261C136.786 32.1882 137.228 28.8218 138.82 25.3514C139.029 24.8844 139.347 24.4743 139.748 24.1554C140.148 23.8366 140.619 23.6183 141.121 23.5187C142.089 23.3302 143.22 23.1938 143.857 23.9476C144.494 24.7015 144.844 26.6901 145.156 27.6195" fill="#263238"/>
<path d="M138.228 33.7813C138.163 33.7098 135.362 31.2857 133.959 34.6326C132.555 37.9795 136.214 38.7009 136.259 38.6034C136.305 38.5059 138.228 33.7813 138.228 33.7813Z" fill="white"/>
<path d="M135.766 36.9072C135.766 36.9072 135.688 36.9072 135.571 36.9072C135.409 36.9107 135.252 36.85 135.135 36.7382C134.976 36.5097 134.881 36.2434 134.858 35.9661C134.835 35.6887 134.886 35.4103 135.005 35.159C135.12 34.8696 135.295 34.6081 135.519 34.3921C135.596 34.2972 135.696 34.2235 135.81 34.178C135.924 34.1325 136.047 34.1168 136.169 34.1322C136.244 34.1414 136.313 34.1773 136.365 34.2333C136.416 34.2893 136.445 34.3617 136.448 34.4376C136.448 34.5481 136.403 34.6066 136.448 34.6196C136.493 34.6326 136.539 34.6196 136.571 34.4441C136.586 34.3527 136.57 34.2589 136.526 34.1776C136.463 34.0696 136.36 33.9904 136.24 33.9567C136.091 33.9264 135.937 33.935 135.792 33.9817C135.648 34.0284 135.518 34.1115 135.415 34.2231C135.151 34.4521 134.948 34.7422 134.823 35.068C134.682 35.3599 134.629 35.6872 134.673 36.0087C134.717 36.3302 134.855 36.6315 135.07 36.8747C135.149 36.9396 135.241 36.9853 135.341 37.0078C135.44 37.0304 135.543 37.0293 135.642 37.0046C135.707 36.9851 135.772 36.9202 135.766 36.9072Z" fill="#AA6550"/>
<path d="M143.505 24.3835C143.297 22.6938 146.384 21.7839 148.25 22.0439C150.115 22.3038 151.895 24.0455 153.267 25.3258C154.138 26.1317 154.943 27.0675 156.035 27.5159C156.79 27.7712 157.578 27.9136 158.375 27.9383C159.17 27.9645 159.953 28.1501 160.675 28.4842C161.033 28.6587 161.336 28.9266 161.554 29.2596C161.771 29.5925 161.894 29.9781 161.91 30.3754C161.902 30.5705 161.852 30.7617 161.764 30.9361C161.676 31.1106 161.552 31.2644 161.401 31.3873C161.249 31.5102 161.073 31.5994 160.884 31.6491C160.695 31.6987 160.498 31.7076 160.305 31.6752C160.592 31.6532 160.88 31.7012 161.145 31.8151C161.41 31.929 161.643 32.1054 161.824 32.3292C162.006 32.553 162.13 32.8175 162.187 33.0999C162.243 33.3824 162.231 33.6744 162.15 33.9508C162.069 34.2273 161.922 34.4801 161.722 34.6873C161.522 34.8946 161.275 35.0503 161.001 35.1409C160.728 35.2315 160.436 35.2545 160.152 35.2078C159.868 35.161 159.599 35.046 159.369 34.8726C160.019 34.7296 160.448 35.646 160.123 36.2049C159.928 36.4636 159.669 36.6673 159.372 36.796C159.075 36.9248 158.749 36.9741 158.427 36.9392C156.764 36.8094 155.206 36.0714 154.053 34.8661C152.844 33.7353 151.869 32.3835 150.693 31.2268C149.517 30.07 147.567 28.0618 145.923 27.9188C144.714 27.8084 143.414 28.7377 142.953 28.1918C142.744 27.9177 142.602 27.599 142.538 27.2606C142.474 26.9223 142.489 26.5736 142.583 26.2421C142.788 25.5789 143.1 24.9534 143.505 24.39" fill="#263238"/>
<path d="M158.791 30.402C158.949 30.4176 159.101 30.4697 159.235 30.5543C159.369 30.6389 159.482 30.7537 159.564 30.8895C159.806 31.2559 159.913 31.6955 159.865 32.1321C159.818 32.5688 159.619 32.9752 159.304 33.281C158.472 34.0609 156.951 34.1064 155.704 33.424C154.384 32.6342 153.294 31.5143 152.539 30.1746C151.808 28.8778 150.948 27.6584 149.972 26.5352C149.529 26.0734 149.016 25.6851 148.451 25.3849C147.95 25.1484 147.411 25.0053 146.859 24.9625C146.054 24.877 145.245 25.0821 144.578 25.5409C144.345 25.741 144.128 25.9582 143.928 26.1908C143.955 26.115 143.993 26.0429 144.038 25.9763C144.165 25.7843 144.318 25.6114 144.493 25.4629C145.17 24.9377 146.018 24.6829 146.872 24.748C147.46 24.7771 148.037 24.9159 148.574 25.1575C149.175 25.46 149.722 25.8596 150.193 26.3403C151.188 27.4679 152.059 28.6989 152.792 30.0121C153.518 31.3007 154.557 32.3849 155.814 33.1641C156.971 33.8139 158.368 33.8139 159.116 33.1121C159.281 32.9659 159.414 32.7871 159.507 32.5869C159.6 32.3867 159.65 32.1694 159.655 31.9488C159.678 31.6076 159.596 31.2676 159.421 30.9739C159.267 30.729 159.049 30.5311 158.791 30.402Z" fill="#455A64"/>
<path d="M150.537 24.6173C150.498 24.6628 150.14 24.3314 149.445 23.9674C148.551 23.5272 147.551 23.3449 146.559 23.441C145.568 23.5633 144.631 23.9569 143.849 24.5783C143.251 25.0592 142.965 25.4687 142.92 25.4297C143.084 25.0262 143.351 24.6723 143.693 24.4028C144.474 23.6802 145.464 23.2249 146.52 23.1031C147.577 22.9952 148.641 23.2226 149.562 23.753C149.955 23.9537 150.29 24.2511 150.537 24.6173Z" fill="#455A64"/>
<path d="M137.865 29.1608C137.801 28.8155 137.847 28.459 137.995 28.1405C138.274 27.3357 138.817 26.6487 139.535 26.1908C140.258 25.7412 141.114 25.5532 141.959 25.6579C142.31 25.6629 142.65 25.7764 142.934 25.9829C142.934 26.0349 142.55 25.9114 141.946 25.8919C141.159 25.8675 140.382 26.073 139.71 26.4833C139.051 26.9067 138.532 27.5147 138.216 28.2315C137.969 28.7839 137.917 29.1673 137.865 29.1608Z" fill="#455A64"/>
<path d="M70.9787 75.5944L70.2183 76.9657C69.7859 78.0095 69.4063 79.0745 69.081 80.1566C69.0272 81.4053 69.11 82.6562 69.328 83.8869C69.328 83.9454 69.3669 84.0169 69.3864 84.0624C69.4394 84.1717 69.4661 84.2919 69.4644 84.4133C69.4926 84.5723 69.4753 84.736 69.4146 84.8856C69.3538 85.0352 69.2521 85.1647 69.1211 85.259C68.99 85.3534 68.8351 85.4089 68.6739 85.4191C68.5128 85.4293 68.352 85.3938 68.2101 85.3167C67.5993 84.9202 66.7999 82.9901 66.8259 80.5075C66.8259 80.4685 66.8259 80.4295 66.8259 80.3905C66.7869 77.869 64.3953 80.9755 63.505 82.0933C62.6146 83.2111 59.6902 86.532 59.1378 86.519C58.3254 86.519 58.1889 85.6091 59.1378 84.5173C60.0866 83.4255 62.5757 79.9681 61.9778 79.4872C61.3799 79.0063 56.9217 84.7838 56.9217 84.7838C56.9217 84.7838 56.1613 86.1745 55.4464 85.6676C54.1466 84.7578 59.3457 79.0063 59.8656 78.4669C60.2166 78.0965 59.5862 77.5766 59.2157 77.999C58.8453 78.4214 54.8875 83.8479 53.5747 82.9251C52.5674 82.2232 57.799 78.1484 58.0135 76.5562C58.2279 74.964 54.3546 80.0591 53.4188 79.3507C53.0678 79.0843 52.8469 78.8373 55.4789 76.2443C57.6366 74.3059 59.8995 72.4878 62.2572 70.7983L65.955 67.5488" fill="white"/>
<path d="M125.114 54.6418C125.252 53.7951 125.203 52.9285 124.973 52.1023C124.742 51.276 124.334 50.5098 123.778 49.8569C123.221 49.204 122.529 48.6799 121.75 48.3211C120.971 47.9623 120.123 47.7774 119.265 47.7791C110.868 47.7791 96.8439 47.7791 90.8454 47.7791C89.0007 47.7829 87.2218 48.4653 85.8478 49.6962L62.0815 70.9475L68.6584 77.6803L91.5603 59.4835L119.232 59.607C120.639 59.611 122 59.1133 123.073 58.2031C124.145 57.293 124.857 56.0302 125.081 54.6418H125.114Z" fill="white"/>
<path d="M99.7485 59.6204C99.703 59.6204 99.9825 58.9705 100.333 57.9242C100.788 56.5585 101.099 55.1494 101.263 53.7194C101.416 52.2916 101.416 50.8515 101.263 49.4237C101.159 48.3254 101.022 47.6495 101.074 47.6365C101.298 48.1988 101.442 48.7893 101.503 49.3912C101.936 52.2947 101.602 55.2609 100.535 57.9956C100.353 58.5724 100.088 59.1197 99.7485 59.6204Z" fill="#263238"/>
<path d="M103.479 48.3123C103.698 48.8431 103.836 49.404 103.888 49.976C104.294 52.7365 103.934 55.5552 102.849 58.1255C102.651 58.6656 102.375 59.1737 102.03 59.6333C101.984 59.6333 102.27 59.0224 102.628 58.041C103.563 55.471 103.914 52.7247 103.654 50.002C103.557 48.9621 103.427 48.3188 103.479 48.3123Z" fill="#263238"/>
<path d="M102.563 58.0017C102.563 58.0927 102.186 58.2486 101.679 58.1837C101.172 58.1187 100.828 57.8717 100.867 57.7937C100.906 57.7157 101.276 57.7937 101.725 57.8457C102.173 57.8977 102.563 57.9107 102.563 58.0017Z" fill="#263238"/>
<path d="M102.719 56.819C102.719 56.91 102.388 56.936 102.011 56.871C101.634 56.806 101.361 56.689 101.361 56.598C101.361 56.507 101.692 56.481 102.069 56.5395C102.446 56.598 102.732 56.7215 102.719 56.819Z" fill="#263238"/>
<path d="M103.277 55.4286C103.277 55.5196 102.927 55.604 102.491 55.5326C102.056 55.4611 101.744 55.2661 101.776 55.1816C101.809 55.0971 102.147 55.1361 102.543 55.1816C102.94 55.2271 103.277 55.3311 103.277 55.4286Z" fill="#263238"/>
<path d="M103.57 53.8878C103.57 53.9853 103.2 54.0698 102.738 54.0893C102.277 54.1088 101.906 54.0438 101.9 53.9463C101.893 53.8488 102.27 53.7643 102.732 53.7513C103.193 53.7383 103.564 53.7968 103.57 53.8878Z" fill="#263238"/>
<path d="M103.427 52.5693C103.427 52.6602 103.134 52.6732 102.816 52.6797C102.498 52.6862 102.225 52.6797 102.205 52.5693C102.186 52.4588 102.452 52.3353 102.816 52.3418C103.18 52.3483 103.453 52.4783 103.427 52.5693Z" fill="#263238"/>
<path d="M103.447 50.9185C103.447 51.0095 103.154 51.1265 102.797 51.1654C102.44 51.2044 102.089 51.1654 102.076 51.081C102.063 50.9965 102.368 50.8795 102.725 50.834C103.083 50.7885 103.44 50.8275 103.447 50.9185Z" fill="#263238"/>
<path d="M103.245 49.6316C103.245 49.7226 102.959 49.7356 102.64 49.7486C102.322 49.7616 102.062 49.7486 102.03 49.6836C101.997 49.6186 102.257 49.4302 102.627 49.4107C102.998 49.3912 103.271 49.5407 103.245 49.6316Z" fill="#263238"/>
<path d="M103.141 48.6824C103.089 48.7604 102.816 48.6824 102.492 48.6434C102.167 48.6044 101.887 48.6759 101.842 48.5849C101.796 48.494 102.082 48.273 102.492 48.3055C102.901 48.338 103.213 48.6109 103.141 48.6824Z" fill="#263238"/>
<path d="M105.163 52.0554C105.117 52.0554 105.267 51.8215 105.579 51.9384C105.67 51.9764 105.745 52.0438 105.793 52.1298C105.842 52.2157 105.86 52.3154 105.845 52.4129C105.827 52.5338 105.769 52.6451 105.679 52.7279C105.589 52.8107 105.473 52.8601 105.351 52.8678C105.232 52.8707 105.115 52.8349 105.018 52.7658C104.92 52.6967 104.848 52.5979 104.812 52.4843C104.782 52.3963 104.778 52.3018 104.798 52.2113C104.819 52.1207 104.864 52.0376 104.929 51.9709C105.15 51.7565 105.358 51.8279 105.345 51.8669C105.332 51.9059 105.208 51.9579 105.117 52.1204C105.097 52.1595 105.086 52.203 105.086 52.2471C105.086 52.2913 105.097 52.3348 105.117 52.3739C105.136 52.4206 105.168 52.4605 105.21 52.4884C105.252 52.5163 105.301 52.5307 105.351 52.5298C105.399 52.5246 105.443 52.505 105.479 52.4737C105.515 52.4423 105.541 52.4007 105.553 52.3544C105.563 52.3159 105.561 52.275 105.547 52.2377C105.533 52.2003 105.508 52.1683 105.475 52.1464C105.319 52.0359 105.163 52.0879 105.163 52.0554Z" fill="#263238"/>
<path d="M104.902 49.6385C104.857 49.6385 105.013 49.411 105.318 49.528C105.41 49.5649 105.487 49.6318 105.537 49.7179C105.586 49.804 105.606 49.9042 105.591 50.0024C105.573 50.1234 105.515 50.2347 105.425 50.3175C105.335 50.4003 105.219 50.4497 105.097 50.4574C104.978 50.4603 104.861 50.4245 104.764 50.3554C104.666 50.2862 104.594 50.1875 104.558 50.0739C104.526 49.9861 104.52 49.8911 104.541 49.8001C104.562 49.7091 104.608 49.6259 104.675 49.5605C104.896 49.3461 105.104 49.4175 105.091 49.4565C105.078 49.4955 104.948 49.541 104.863 49.7035C104.841 49.7432 104.829 49.788 104.829 49.8335C104.829 49.879 104.841 49.9237 104.863 49.9635C104.884 50.0082 104.917 50.0464 104.959 50.0739C105 50.1014 105.048 50.1171 105.097 50.1194C105.144 50.1111 105.187 50.0905 105.222 50.0596C105.258 50.0286 105.284 49.9887 105.299 49.944C105.307 49.9055 105.304 49.8655 105.29 49.8287C105.276 49.7919 105.252 49.7597 105.221 49.736C105.071 49.6255 104.935 49.6775 104.902 49.6385Z" fill="#263238"/>
<path d="M104.707 55.019C104.662 55.019 104.811 54.7915 105.123 54.9085C105.214 54.9465 105.29 55.0138 105.338 55.0998C105.386 55.1858 105.405 55.2854 105.39 55.3829C105.372 55.5039 105.313 55.6151 105.223 55.6979C105.133 55.7808 105.018 55.8301 104.896 55.8378C104.776 55.8407 104.659 55.8049 104.562 55.7358C104.465 55.6667 104.393 55.568 104.356 55.4544C104.325 55.3655 104.319 55.2695 104.34 55.1776C104.361 55.0856 104.407 55.0013 104.473 54.9345C104.694 54.7265 104.902 54.7915 104.889 54.837C104.876 54.8825 104.753 54.9215 104.662 55.0839C104.64 55.1237 104.628 55.1684 104.628 55.2139C104.628 55.2594 104.64 55.3042 104.662 55.3439C104.683 55.3887 104.716 55.4269 104.757 55.4543C104.798 55.4818 104.846 55.4976 104.896 55.4999C104.943 55.4938 104.987 55.4739 105.023 55.4427C105.059 55.4115 105.085 55.3703 105.097 55.3244C105.109 55.286 105.108 55.2448 105.094 55.2071C105.079 55.1695 105.053 55.1376 105.019 55.1164C104.87 55.019 104.733 55.0709 104.707 55.019Z" fill="#263238"/>
<path d="M103.999 57.9568C103.953 57.9568 104.109 57.7228 104.415 57.8398C104.507 57.8767 104.584 57.9436 104.634 58.0297C104.683 58.1157 104.702 58.216 104.688 58.3142C104.669 58.4354 104.61 58.5468 104.521 58.6306C104.431 58.7143 104.316 58.7654 104.194 58.7756C104.074 58.776 103.958 58.7385 103.861 58.6684C103.764 58.5984 103.692 58.4994 103.654 58.3857C103.624 58.2978 103.618 58.203 103.639 58.1121C103.66 58.0213 103.705 57.9381 103.771 57.8723C103.992 57.6578 104.2 57.7293 104.187 57.7683C104.174 57.8073 104.044 57.8593 103.96 58.0218C103.938 58.0603 103.926 58.104 103.926 58.1485C103.926 58.193 103.938 58.2367 103.96 58.2752C103.98 58.3217 104.012 58.3616 104.053 58.3903C104.095 58.4191 104.143 58.4355 104.194 58.4377C104.24 58.4282 104.282 58.407 104.318 58.3763C104.353 58.3456 104.38 58.3063 104.395 58.2622C104.404 58.2228 104.401 58.1817 104.387 58.1438C104.373 58.1058 104.349 58.0725 104.317 58.0478C104.168 57.9373 104.031 57.9893 103.999 57.9568Z" fill="#263238"/>
<path d="M106.351 47.7017C106.581 48.2569 106.734 48.8406 106.806 49.4369C107.299 52.3064 107.098 55.252 106.221 58.0283C106.067 58.6082 105.838 59.1653 105.539 59.6855C105.656 59.1008 105.808 58.5236 105.994 57.9568C106.354 56.5773 106.587 55.1677 106.689 53.7456C106.78 52.3217 106.741 50.8926 106.572 49.4758C106.465 48.8891 106.391 48.2968 106.351 47.7017Z" fill="#263238"/>
<path d="M107.541 47.9229C107.769 48.4608 107.924 49.0269 108.002 49.6061C108.246 51.0001 108.318 52.4187 108.217 53.8303C108.115 55.2419 107.835 56.635 107.385 57.9766C107.229 58.5405 106.993 59.079 106.683 59.5753C106.637 59.5753 106.871 58.9254 107.157 57.9051C107.535 56.5658 107.776 55.192 107.879 53.8043C107.976 52.4174 107.937 51.0243 107.762 49.645C107.65 49.0765 107.577 48.5011 107.541 47.9229Z" fill="#263238"/>
<path d="M111.168 53.5118C111.168 53.5118 111.005 53.5118 110.771 53.5832C110.614 53.6534 110.487 53.7782 110.414 53.9347C110.341 54.0912 110.327 54.2688 110.375 54.4346C110.449 54.6784 110.613 54.8847 110.834 55.0114C111.055 55.1382 111.316 55.176 111.564 55.117C111.709 55.0965 111.847 55.0439 111.968 54.9629C112.09 54.8819 112.192 54.7746 112.266 54.6491C112.427 54.3653 112.476 54.0312 112.403 53.7132C112.33 53.4025 112.16 53.1233 111.916 52.9172C111.673 52.7111 111.369 52.5892 111.051 52.5694C110.509 52.515 109.967 52.6761 109.543 53.0179C109.16 53.3665 108.834 53.7721 108.575 54.2201C108.575 54.2201 108.575 54.0577 108.692 53.7977C108.852 53.4291 109.091 53.1006 109.394 52.8359C109.619 52.6284 109.885 52.4698 110.175 52.3703C110.464 52.2707 110.771 52.2323 111.077 52.2575C111.448 52.2826 111.804 52.4134 112.104 52.6344C112.438 52.8773 112.67 53.2366 112.753 53.6417C112.842 54.0428 112.778 54.4626 112.571 54.818C112.469 54.9826 112.332 55.1223 112.169 55.2269C112.006 55.3315 111.821 55.3983 111.629 55.4224C111.288 55.4782 110.939 55.4065 110.648 55.221C110.52 55.1375 110.411 55.0287 110.327 54.9013C110.243 54.7738 110.186 54.6304 110.16 54.4801C110.117 54.2344 110.168 53.9813 110.303 53.7717C110.41 53.6195 110.566 53.5092 110.745 53.4598C111.012 53.3818 111.181 53.5053 111.168 53.5118Z" fill="#263238"/>
<path d="M98.5334 52.7249C98.5334 52.7249 98.6829 52.6469 98.9169 52.7769C99.0764 52.8778 99.1972 53.0296 99.2597 53.2077C99.3222 53.3858 99.3228 53.5798 99.2613 53.7582C99.197 53.8869 99.1056 54.0002 98.9933 54.0901C98.881 54.18 98.7506 54.2445 98.6109 54.2791C98.4713 54.3137 98.3258 54.3176 98.1845 54.2905C98.0432 54.2634 97.9095 54.206 97.7926 54.1222C97.6591 54.0129 97.5486 53.8782 97.4677 53.7258C97.3868 53.5735 97.3371 53.4065 97.3213 53.2347C97.3056 53.063 97.3242 52.8897 97.3761 52.7252C97.428 52.5607 97.5122 52.4082 97.6236 52.2765C97.8401 52.0264 98.1187 51.8376 98.4312 51.7292C98.7438 51.6209 99.0794 51.5967 99.4043 51.6591C99.6734 51.6969 99.9303 51.7956 100.156 51.9476C100.381 52.0996 100.568 52.301 100.704 52.5364C100.88 52.8432 100.949 53.2 100.899 53.5503C100.86 53.7907 100.782 53.9077 100.763 53.9012C100.813 53.4702 100.722 53.0346 100.503 52.6599C100.36 52.4542 100.172 52.2833 99.9545 52.1601C99.7365 52.0368 99.4935 51.9644 99.2436 51.9481C98.9937 51.9319 98.7434 51.9723 98.5113 52.0663C98.2791 52.1602 98.0712 52.3054 97.9031 52.491C97.7337 52.6863 97.6482 52.9406 97.6653 53.1985C97.6823 53.4565 97.8004 53.6974 97.994 53.8687C98.0757 53.93 98.1692 53.9736 98.2686 53.9967C98.368 54.0199 98.4711 54.022 98.5714 54.0031C98.6717 53.9841 98.7669 53.9444 98.851 53.8866C98.9351 53.8288 99.0062 53.7541 99.0599 53.6673C99.1114 53.5324 99.1196 53.3849 99.0835 53.2452C99.0474 53.1054 98.9688 52.9804 98.8584 52.8874C98.6634 52.7509 98.5334 52.7574 98.5334 52.7249Z" fill="#263238"/>
<path d="M100.417 51.7696C100.326 51.7696 100.17 51.4317 100.066 50.9702C99.9623 50.5088 99.9558 50.1189 100.066 50.0994C100.177 50.0799 100.313 50.4373 100.411 50.8988C100.508 51.3602 100.508 51.7306 100.417 51.7696Z" fill="#263238"/>
<path d="M100.256 54.7072C100.308 54.7852 100.119 55.0192 99.8267 55.2336C99.5342 55.4481 99.2548 55.5586 99.1768 55.4871C99.0988 55.4156 99.3133 55.1752 99.6057 54.9607C99.8982 54.7462 100.197 54.6358 100.256 54.7072Z" fill="#263238"/>
<path d="M109.217 56.0461C109.133 56.0851 108.957 55.8966 108.827 55.6236C108.697 55.3507 108.652 55.0907 108.736 55.0517C108.821 55.0127 108.996 55.2012 109.126 55.4742C109.256 55.7471 109.302 56.0006 109.217 56.0461Z" fill="#263238"/>
<path d="M110.089 50.8269C110.167 50.8789 109.965 51.2883 109.647 51.7367C109.328 52.1851 108.997 52.5101 108.919 52.4581C108.841 52.4061 109.049 51.9902 109.367 51.5417C109.686 51.0933 110.017 50.7684 110.089 50.8269Z" fill="#263238"/>
</svg>
