<svg viewBox="0 0 1738 1496" fill="none" xmlns="http://www.w3.org/2000/svg">
  <!-- Original paths with updated colors -->
  <path d="M87.0001 220C61.595 220 41 240.595 41 266V351.39C41 372.377 58.0132 389.39 79 389.39H119.08C133.439 389.39 145.08 401.031 145.08 415.39V434.19C145.08 434.19 141.31 461.15 106.4 463.09H79.46C79.46 463.09 56.75 464.52 53.67 482.13L54.59 539.46C54.69 544.01 56.5 566.29 83.26 566.04C116.22 565.74 137.48 566.04 137.48 566.04C137.48 566.04 169.64 563.83 169.64 592.51V720.46C169.64 720.46 170.44 746.38 198.88 746.93C227.32 747.48 250.66 747 250.66 747C250.66 747 280.82 745.63 281.92 769.57C282.66 785.56 281.77 802.63 281.77 802.63C281.77 802.63 286.29 830.21 255.91 829.66C225.53 829.11 125.34 829.68 125.34 829.68C125.34 829.68 94.22 831.43 93.67 861.13L93.79 882.33C93.79 882.33 90.77 911.13 116.94 913.08H168C168 913.08 199.68 911.17 200.97 935.62L202.91 952.09C202.91 952.09 204.9 970.19 225.58 970.74L243.63 970.84C243.63 970.84 263.35 971.27 283.8 993.65L366.78 1063.72C366.78 1063.72 399.1 1083.11 434.05 1078.52L660.88 1078.14C660.88 1078.14 690.61 1080.34 690.61 1105.71C690.61 1131.08 659.58 1135.49 659.58 1135.49H566.5C566.5 1135.49 536.77 1136.59 536.77 1164.17C536.77 1191.75 557.46 1191.74 557.46 1191.74H889.7C889.7 1191.74 922.88 1191.29 951.32 1218.86L1020.79 1278.43C1020.79 1278.43 1040.17 1297.13 1071.2 1297.13H1315.92C1315.92 1297.13 1341.79 1298.14 1357.3 1277.18L1435.66 1199.48C1435.66 1199.48 1455.08 1173.01 1474.47 1173.01C1491.37 1173.01 1579.37 1172.59 1657.95 1172.48C1665.79 1171.35 1676.33 1166.56 1676.33 1149.02V266C1676.33 240.595 1655.74 220 1630.33 220H87.0001Z" fill="#4A90E2"/>
  <path d="M97.0001 205C71.595 205 51 225.595 51 251V336.39C51 357.377 68.0132 374.39 89 374.39H129.08C143.439 374.39 155.08 386.031 155.08 400.39V419.19C155.08 419.19 151.31 446.15 116.4 448.09H89.46C89.46 448.09 66.75 449.52 63.67 467.13L64.59 524.46C64.69 529.01 66.5 551.29 93.26 551.04C126.22 550.74 147.48 551.04 147.48 551.04C147.48 551.04 179.64 548.83 179.64 577.51V705.46C179.64 705.46 180.44 731.38 208.88 731.93C237.32 732.48 260.66 732 260.66 732C260.66 732 290.82 730.63 291.92 754.57C292.66 770.56 291.77 787.63 291.77 787.63C291.77 787.63 296.29 815.21 265.91 814.66C235.53 814.11 135.34 814.68 135.34 814.68C135.34 814.68 104.22 816.43 103.67 846.13L103.79 867.33C103.79 867.33 100.77 896.13 126.94 898.08H178C178 898.08 209.68 896.17 210.97 920.62L212.91 937.09C212.91 937.09 214.9 955.19 235.58 955.74L253.63 955.84C253.63 955.84 273.35 956.27 293.8 978.65L376.78 1048.72C376.78 1048.72 409.1 1068.11 444.05 1063.52L670.88 1063.14C670.88 1063.14 700.61 1065.34 700.61 1090.71C700.61 1116.08 669.58 1120.49 669.58 1120.49H576.5C576.5 1120.49 546.77 1121.59 546.77 1149.17C546.77 1176.75 567.46 1176.74 567.46 1176.74H899.7C899.7 1176.74 932.88 1176.29 961.32 1203.86L1030.79 1263.43C1030.79 1263.43 1050.17 1282.13 1081.2 1282.13H1325.92C1325.92 1282.13 1351.79 1283.14 1367.3 1262.18L1445.66 1184.48C1445.66 1184.48 1465.08 1158.01 1484.47 1158.01C1501.37 1158.01 1589.37 1157.59 1667.95 1157.48C1675.79 1156.35 1686.33 1151.56 1686.33 1134.02V251C1686.33 225.595 1665.74 205 1640.33 205H97.0001Z" fill="#5BC0EB"/>
  
  <!-- Beach area -->
  <path d="M0 1400 Q869 1300 1738 1400 L1738 1496 L0 1496 Z" fill="#F9D3A7"/>
  
  <!-- Waves -->
  <path d="M0 1350 Q434.5 1300 869 1350 T1738 1350" stroke="white" stroke-width="10" fill="none"/>
  <path d="M0 1370 Q434.5 1320 869 1370 T1738 1370" stroke="white" stroke-width="8" fill="none"/>
  <path d="M0 1390 Q434.5 1340 869 1390 T1738 1390" stroke="white" stroke-width="6" fill="none"/>
  
  <!-- Islands -->
  <ellipse cx="300" cy="600" rx="150" ry="75" fill="#8FBC8F"/>
  <ellipse cx="1400" cy="500" rx="200" ry="100" fill="#8FBC8F"/>
  
  <!-- Coconut trees -->
  <g transform="translate(250, 560) scale(0.5)">
    <path d="M0 0 Q25 -50 50 0 T100 0" fill="#8B4513"/>
    <path d="M0 -60 Q25 -100 50 -60 T100 -60 T150 -60" fill="#228B22"/>
    <path d="M0 -40 Q25 -80 50 -40 T100 -40 T150 -40" fill="#228B22"/>
    <path d="M0 -20 Q25 -60 50 -20 T100 -20 T150 -20" fill="#228B22"/>
  </g>
  
  <g transform="translate(1350, 440) scale(0.7)">
    <path d="M0 0 Q25 -50 50 0 T100 0" fill="#8B4513"/>
    <path d="M0 -60 Q25 -100 50 -60 T100 -60 T150 -60" fill="#228B22"/>
    <path d="M0 -40 Q25 -80 50 -40 T100 -40 T150 -40" fill="#228B22"/>
    <path d="M0 -20 Q25 -60 50 -20 T100 -20 T150 -20" fill="#228B22"/>
  </g>
  
  <!-- Surfboards -->
  <g transform="translate(800, 1350) rotate(-30)">
    <ellipse cx="0" cy="0" rx="80" ry="20" fill="#FF6347"/>
    <ellipse cx="0" cy="0" rx="75" ry="17" fill="#FFD700"/>
  </g>
  
  <g transform="translate(1000, 1380) rotate(15)">
    <ellipse cx="0" cy="0" rx="90" ry="20" fill="#4169E1"/>
    <ellipse cx="0" cy="0" rx="85" ry="17" fill="#87CEEB"/>
  </g>
  
  <!-- Sun -->
  <circle cx="1600" cy="150" r="60" fill="#FFD700"/>
  <g stroke="#FFD700" stroke-width="4">
    <line x1="1600" y1="70" x2="1600" y2="40"/>
    <line x1="1600" y1="230" x2="1600" y2="260"/>
    <line x1="1520" y1="150" x2="1490" y2="150"/>
    <line x1="1680" y1="150" x2="1710" y2="150"/>
    <line x1="1540" y1="90" x2="1520" y2="70"/>
    <line x1="1660" y1="210" x2="1680" y2="230"/>
    <line x1="1540" y1="210" x2="1520" y2="230"/>
    <line x1="1660" y1="90" x2="1680" y2="70"/>
  </g>
  
  <!-- Path to the beach -->
  <path d="M850 1200 Q869 1150 888 1200 T926 1200 T964 1200 T1002 1200" stroke="#8B4513" stroke-width="8" fill="none"/>
</svg>