<svg width="221" height="296" viewBox="0 0 221 296" fill="none" xmlns="http://www.w3.org/2000/svg">
<path fillRule="evenodd" clipRule="evenodd" d="M221 24C221 10.7452 210.255 0 197 0H24C10.7452 0 0 10.7452 0 24V272C0 285.255 10.7452 296 24 296H197C210.255 296 221 285.255 221 272V204.557C221 198.282 218.542 192.257 214.154 187.772L175.503 148.272C169.836 142.48 160.734 141.84 154.312 146.78L83.4993 201.253C76.0511 206.983 65.3049 205.182 60.1322 197.336C55.5239 190.347 57.0097 180.997 63.5575 175.781L211.954 57.5597C217.67 53.0061 221 46.0962 221 38.7882V24Z" fill="#3757FF"/>
</svg>
