<svg width="754" height="817" viewBox="0 0 754 817" fill="none" xmlns="http://www.w3.org/2000/svg">
<mask id="path-1-inside-1_262_1033" fill="white">
<path fill-rule="evenodd" clip-rule="evenodd" d="M436 8C436 3.58172 432.418 0 428 0H8C3.58172 0 0 3.58171 0 7.99999V429C0 433.418 3.58173 437 8 437H262C266.418 437 270 433.418 270 429V389C270 384.582 273.582 381 278 381H281C285.418 381 289 384.582 289 389V432C289 434.761 291.239 437 294 437V437C296.761 437 299 434.761 299 432V389C299 384.582 302.582 381 307 381H310C314.418 381 318 384.582 318 389V429C318 433.418 321.582 437 326 437H347C351.418 437 355 433.418 355 429V390C355 385.582 358.582 382 363 382H408C412.418 382 416 385.582 416 390V429C416 433.418 419.582 437 424 437H428C432.418 437 436 433.418 436 429V264C436 259.582 432.418 256 428 256H327C322.582 256 319 252.418 319 248V190C319 185.582 322.582 182 327 182H428C432.418 182 436 178.418 436 174V150C436 145.582 432.418 142 428 142H328C323.582 142 320 138.418 320 134V76C320 71.5817 323.582 68 328 68H428C432.418 68 436 64.4183 436 60V8Z"/>
</mask>
<path fill-rule="evenodd" clip-rule="evenodd" d="M436 8C436 3.58172 432.418 0 428 0H8C3.58172 0 0 3.58171 0 7.99999V429C0 433.418 3.58173 437 8 437H262C266.418 437 270 433.418 270 429V389C270 384.582 273.582 381 278 381H281C285.418 381 289 384.582 289 389V432C289 434.761 291.239 437 294 437V437C296.761 437 299 434.761 299 432V389C299 384.582 302.582 381 307 381H310C314.418 381 318 384.582 318 389V429C318 433.418 321.582 437 326 437H347C351.418 437 355 433.418 355 429V390C355 385.582 358.582 382 363 382H408C412.418 382 416 385.582 416 390V429C416 433.418 419.582 437 424 437H428C432.418 437 436 433.418 436 429V264C436 259.582 432.418 256 428 256H327C322.582 256 319 252.418 319 248V190C319 185.582 322.582 182 327 182H428C432.418 182 436 178.418 436 174V150C436 145.582 432.418 142 428 142H328C323.582 142 320 138.418 320 134V76C320 71.5817 323.582 68 328 68H428C432.418 68 436 64.4183 436 60V8Z" fill="url(#paint0_linear_262_1033)"/>
<path d="M8 1H428V-1H8V1ZM1 429V7.99999H-1V429H1ZM262 436H8V438H262V436ZM269 389V429H271V389H269ZM281 380H278V382H281V380ZM290 432V389H288V432H290ZM298 389V432H300V389H298ZM310 380H307V382H310V380ZM319 429V389H317V429H319ZM347 436H326V438H347V436ZM356 429V390H354V429H356ZM363 383H408V381H363V383ZM415 390V429H417V390H415ZM428 436H424V438H428V436ZM435 264V429H437V264H435ZM327 257H428V255H327V257ZM318 190V248H320V190H318ZM428 181H327V183H428V181ZM435 150V174H437V150H435ZM328 143H428V141H328V143ZM319 76V134H321V76H319ZM428 67H328V69H428V67ZM435 8V60H437V8H435ZM428 69C432.971 69 437 64.9706 437 60H435C435 63.866 431.866 67 428 67V69ZM321 76C321 72.134 324.134 69 328 69V67C323.029 67 319 71.0294 319 76H321ZM328 141C324.134 141 321 137.866 321 134H319C319 138.971 323.029 143 328 143V141ZM437 150C437 145.029 432.971 141 428 141V143C431.866 143 435 146.134 435 150H437ZM428 183C432.971 183 437 178.971 437 174H435C435 177.866 431.866 181 428 181V183ZM320 190C320 186.134 323.134 183 327 183V181C322.029 181 318 185.029 318 190H320ZM327 255C323.134 255 320 251.866 320 248H318C318 252.971 322.029 257 327 257V255ZM437 264C437 259.029 432.971 255 428 255V257C431.866 257 435 260.134 435 264H437ZM428 438C432.971 438 437 433.971 437 429H435C435 432.866 431.866 436 428 436V438ZM415 429C415 433.971 419.029 438 424 438V436C420.134 436 417 432.866 417 429H415ZM408 383C411.866 383 415 386.134 415 390H417C417 385.029 412.971 381 408 381V383ZM356 390C356 386.134 359.134 383 363 383V381C358.029 381 354 385.029 354 390H356ZM347 438C351.971 438 356 433.971 356 429H354C354 432.866 350.866 436 347 436V438ZM317 429C317 433.971 321.029 438 326 438V436C322.134 436 319 432.866 319 429H317ZM310 382C313.866 382 317 385.134 317 389H319C319 384.029 314.971 380 310 380V382ZM300 389C300 385.134 303.134 382 307 382V380C302.029 380 298 384.029 298 389H300ZM294 438C297.314 438 300 435.314 300 432H298C298 434.209 296.209 436 294 436V438ZM288 432C288 435.314 290.686 438 294 438V436C291.791 436 290 434.209 290 432H288ZM281 382C284.866 382 288 385.134 288 389H290C290 384.029 285.971 380 281 380V382ZM271 389C271 385.134 274.134 382 278 382V380C273.029 380 269 384.029 269 389H271ZM262 438C266.971 438 271 433.971 271 429H269C269 432.866 265.866 436 262 436V438ZM-1 429C-1 433.971 3.02944 438 8 438V436C4.13401 436 1 432.866 1 429H-1ZM428 1C431.866 1 435 4.13401 435 8H437C437 3.02944 432.971 -1 428 -1V1ZM8 -1C3.02944 -1 -1 3.02943 -1 7.99999H1C1 4.134 4.134 1 8 1V-1Z" fill="url(#paint1_linear_262_1033)" mask="url(#path-1-inside-1_262_1033)"/>
<mask id="path-3-inside-2_262_1033" fill="white">
<path fill-rule="evenodd" clip-rule="evenodd" d="M326 181C321.582 181 318 184.582 318 189V249C318 253.418 321.582 257 326 257H427C431.418 257 435 260.582 435 265V429C435 433.418 431.418 437 427 437H567C571.418 437 575 433.418 575 429V423.074C575 419.725 577.087 416.73 580.229 415.569L671.229 381.976C676.453 380.048 682 383.913 682 389.481V429C682 433.418 685.582 437 690 437H746C750.418 437 754 433.418 754 429V8C754 3.58172 750.418 0 746 0H426C430.418 0 434 3.58172 434 8V59C434 63.4183 430.418 67 426 67H326C321.582 67 318 70.5817 318 75V135C318 139.418 321.582 143 326 143H427C431.418 143 435 146.582 435 151V173C435 177.418 431.418 181 427 181H326Z"/>
</mask>
<path fill-rule="evenodd" clip-rule="evenodd" d="M326 181C321.582 181 318 184.582 318 189V249C318 253.418 321.582 257 326 257H427C431.418 257 435 260.582 435 265V429C435 433.418 431.418 437 427 437H567C571.418 437 575 433.418 575 429V423.074C575 419.725 577.087 416.73 580.229 415.569L671.229 381.976C676.453 380.048 682 383.913 682 389.481V429C682 433.418 685.582 437 690 437H746C750.418 437 754 433.418 754 429V8C754 3.58172 750.418 0 746 0H426C430.418 0 434 3.58172 434 8V59C434 63.4183 430.418 67 426 67H326C321.582 67 318 70.5817 318 75V135C318 139.418 321.582 143 326 143H427C431.418 143 435 146.582 435 151V173C435 177.418 431.418 181 427 181H326Z" fill="url(#paint2_linear_262_1033)"/>
<path d="M580.229 415.569L580.576 416.508L580.576 416.508L580.229 415.569ZM671.229 381.976L671.576 382.914L671.576 382.914L671.229 381.976ZM319 249V189H317V249H319ZM427 256H326V258H427V256ZM436 265C436 260.029 431.971 256 427 256V258C430.866 258 434 261.134 434 265H436ZM436 429V265H434V429H436ZM427 438C431.971 438 436 433.971 436 429H434C434 432.866 430.866 436 427 436V438ZM567 436H427V438H567V436ZM574 423.074V429H576V423.074H574ZM579.883 414.631C576.348 415.936 574 419.306 574 423.074H576C576 420.143 577.826 417.523 580.576 416.508L579.883 414.631ZM670.883 381.038L579.883 414.631L580.576 416.508L671.576 382.914L670.883 381.038ZM683 389.481C683 383.217 676.76 378.869 670.883 381.038L671.576 382.914C676.146 381.227 681 384.609 681 389.481H683ZM683 429V389.481H681V429H683ZM746 436H690V438H746V436ZM753 429C753 432.866 749.866 436 746 436V438C750.971 438 755 433.971 755 429H753ZM753 8V429H755V8H753ZM746 1C749.866 1 753 4.13401 753 8H755C755 3.02944 750.971 -1 746 -1V1ZM426 1H746V-1H426V1ZM435 8C435 3.02944 430.971 -1 426 -1V1C429.866 1 433 4.13401 433 8H435ZM435 59V8H433V59H435ZM426 68C430.971 68 435 63.9706 435 59H433C433 62.866 429.866 66 426 66V68ZM326 68H426V66H326V68ZM319 135V75H317V135H319ZM326 144H427V142H326V144ZM427 144C430.866 144 434 147.134 434 151H436C436 146.029 431.971 142 427 142V144ZM434 151V173H436V151H434ZM434 173C434 176.866 430.866 180 427 180V182C431.971 182 436 177.971 436 173H434ZM427 180H326V182H427V180ZM317 135C317 139.971 321.029 144 326 144V142C322.134 142 319 138.866 319 135H317ZM317 249C317 253.971 321.029 258 326 258V256C322.134 256 319 252.866 319 249H317ZM681 429C681 433.971 685.029 438 690 438V436C686.134 436 683 432.866 683 429H681ZM567 438C571.971 438 576 433.971 576 429H574C574 432.866 570.866 436 567 436V438ZM319 189C319 185.134 322.134 182 326 182V180C321.029 180 317 184.029 317 189H319ZM326 66C321.029 66 317 70.0294 317 75H319C319 71.134 322.134 68 326 68V66Z" fill="url(#paint3_linear_262_1033)" mask="url(#path-3-inside-2_262_1033)"/>
<mask id="path-5-inside-3_262_1033" fill="white">
<path fill-rule="evenodd" clip-rule="evenodd" d="M9 436C4.58172 436 1 432.418 1 428L0.999998 380.5C0.999998 380.224 0.776141 380 0.499999 380V380C0.223857 380 0 380.224 0 380.5V809C0 813.418 3.58173 817 8 817H428C432.418 817 436 813.418 436 809V610C436 605.582 432.418 602 428 602H330C325.582 602 322 598.418 322 594V534C322 529.582 325.582 526 330 526H428C432.418 526 436 522.418 436 518V388C436 383.582 432.418 380 428 380H362C357.582 380 354 383.582 354 388V428C354 432.418 350.418 436 346 436H327C322.582 436 319 432.418 319 428V388C319 383.582 315.418 380 311 380H306C301.582 380 298 383.582 298 388V431C298 433.209 296.209 435 294 435V435C291.791 435 290 433.209 290 431V388C290 383.582 286.418 380 282 380H277C272.582 380 269 383.582 269 388V428C269 432.418 265.418 436 261 436L9 436Z"/>
</mask>
<path fill-rule="evenodd" clip-rule="evenodd" d="M9 436C4.58172 436 1 432.418 1 428L0.999998 380.5C0.999998 380.224 0.776141 380 0.499999 380V380C0.223857 380 0 380.224 0 380.5V809C0 813.418 3.58173 817 8 817H428C432.418 817 436 813.418 436 809V610C436 605.582 432.418 602 428 602H330C325.582 602 322 598.418 322 594V534C322 529.582 325.582 526 330 526H428C432.418 526 436 522.418 436 518V388C436 383.582 432.418 380 428 380H362C357.582 380 354 383.582 354 388V428C354 432.418 350.418 436 346 436H327C322.582 436 319 432.418 319 428V388C319 383.582 315.418 380 311 380H306C301.582 380 298 383.582 298 388V431C298 433.209 296.209 435 294 435V435C291.791 435 290 433.209 290 431V388C290 383.582 286.418 380 282 380H277C272.582 380 269 383.582 269 388V428C269 432.418 265.418 436 261 436L9 436Z" fill="url(#paint4_linear_262_1033)"/>
<path d="M-2.42197e-06 380.5L-3.49113e-07 428L2 428L2 380.5L-2.42197e-06 380.5ZM1 809V380.5H-1V809H1ZM428 816H8V818H428V816ZM435 610V809H437V610H435ZM428 601H330V603H428V601ZM323 594V534H321V594H323ZM330 527H428V525H330V527ZM435 388V518H437V388H435ZM362 381H428V379H362V381ZM355 428V388H353V428H355ZM327 437H346V435H327V437ZM318 388V428H320V388H318ZM306 381H311V379H306V381ZM299 431V388H297V431H299ZM289 388V431H291V388H289ZM277 381H282V379H277V381ZM270 428V388H268V428H270ZM9 437L261 437L261 435L9 435L9 437ZM268 428C268 431.866 264.866 435 261 435L261 437C265.971 437 270 432.971 270 428H268ZM277 379C272.029 379 268 383.029 268 388H270C270 384.134 273.134 381 277 381V379ZM291 388C291 383.029 286.971 379 282 379V381C285.866 381 289 384.134 289 388H291ZM294 434C292.343 434 291 432.657 291 431H289C289 433.761 291.239 436 294 436V434ZM297 431C297 432.657 295.657 434 294 434V436C296.761 436 299 433.761 299 431H297ZM306 379C301.029 379 297 383.029 297 388H299C299 384.134 302.134 381 306 381V379ZM320 388C320 383.029 315.971 379 311 379V381C314.866 381 318 384.134 318 388H320ZM327 435C323.134 435 320 431.866 320 428H318C318 432.971 322.029 437 327 437V435ZM353 428C353 431.866 349.866 435 346 435V437C350.971 437 355 432.971 355 428H353ZM362 379C357.029 379 353 383.029 353 388H355C355 384.134 358.134 381 362 381V379ZM437 388C437 383.029 432.971 379 428 379V381C431.866 381 435 384.134 435 388H437ZM428 527C432.971 527 437 522.971 437 518H435C435 521.866 431.866 525 428 525V527ZM323 534C323 530.134 326.134 527 330 527V525C325.029 525 321 529.029 321 534H323ZM330 601C326.134 601 323 597.866 323 594H321C321 598.971 325.029 603 330 603V601ZM437 610C437 605.029 432.971 601 428 601V603C431.866 603 435 606.134 435 610H437ZM428 818C432.971 818 437 813.971 437 809H435C435 812.866 431.866 816 428 816V818ZM-1 809C-1 813.971 3.02944 818 8 818V816C4.13401 816 1 812.866 1 809H-1ZM0.499999 379C-0.328438 379 -1 379.672 -1 380.5H1C1 380.776 0.776152 381 0.499999 381V379ZM-3.49113e-07 428C-1.32202e-07 432.971 4.02944 437 9 437L9 435C5.13401 435 2 431.866 2 428L-3.49113e-07 428ZM2 380.5C2 379.672 1.32843 379 0.499999 379V381C0.223856 381 -2.40992e-06 380.776 -2.42197e-06 380.5L2 380.5Z" fill="url(#paint5_linear_262_1033)" mask="url(#path-5-inside-3_262_1033)"/>
<mask id="path-7-inside-4_262_1033" fill="white">
<path fill-rule="evenodd" clip-rule="evenodd" d="M691 435C686.582 435 683 431.418 683 427V388C683 383.582 679.418 380 675 380H671.573C670.62 380 669.674 380.17 668.78 380.503L584.293 411.979V411.979C581.928 412.86 574 417.325 574 419.848V427C574 431.418 570.418 435 566 435L443 435C438.582 435 435 431.418 435 427L435 516C435 520.418 431.418 524 427 524H326C321.582 524 318 527.582 318 532V597C318 601.418 321.582 605 326 605H425C429.418 605 433 608.582 433 613V809C433 813.418 429.418 817 425 817H746C750.418 817 754 813.418 754 809V427C754 431.418 750.418 435 746 435L691 435ZM427 380V380C431.418 380 435 383.582 435 388V388C435 383.582 431.418 380 427 380Z"/>
</mask>
<path fill-rule="evenodd" clip-rule="evenodd" d="M691 435C686.582 435 683 431.418 683 427V388C683 383.582 679.418 380 675 380H671.573C670.62 380 669.674 380.17 668.78 380.503L584.293 411.979V411.979C581.928 412.86 574 417.325 574 419.848V427C574 431.418 570.418 435 566 435L443 435C438.582 435 435 431.418 435 427L435 516C435 520.418 431.418 524 427 524H326C321.582 524 318 527.582 318 532V597C318 601.418 321.582 605 326 605H425C429.418 605 433 608.582 433 613V809C433 813.418 429.418 817 425 817H746C750.418 817 754 813.418 754 809V427C754 431.418 750.418 435 746 435L691 435ZM427 380V380C431.418 380 435 383.582 435 388V388C435 383.582 431.418 380 427 380Z" fill="url(#paint6_linear_262_1033)"/>
<path d="M691 435L691 434L691 434L691 435ZM566 435L566 436L566 436L566 435ZM443 435L443 436H443L443 435ZM435 516L434 516V516H435ZM746 435L746 434H746L746 435ZM668.78 380.503L668.431 379.566L668.78 380.503ZM682 427C682 431.971 686.029 436 691 436L691 434C687.134 434 684 430.866 684 427H682ZM682 388V427H684V388H682ZM675 379H671.573V381H675V379ZM668.431 379.566L583.944 411.042L584.642 412.916L669.13 381.44L668.431 379.566ZM573 419.848V427H575V419.848H573ZM573 427C573 430.866 569.866 434 566 434L566 436C570.971 436 575 431.971 575 427H573ZM566 434L443 434L443 436L566 436L566 434ZM443 434C439.134 434 436 430.866 436 427H434C434 431.971 438.029 436 443 436V434ZM434 427L434 516L436 516L436 427L434 427ZM434 516C434 519.866 430.866 523 427 523V525C431.971 525 436 520.971 436 516H434ZM427 523H326V525H427V523ZM317 532V597H319V532H317ZM326 606H425V604H326V606ZM425 606C428.866 606 432 609.134 432 613H434C434 608.029 429.971 604 425 604V606ZM432 613V809H434V613H432ZM432 809C432 812.866 428.866 816 425 816V818C429.971 818 434 813.971 434 809H432ZM425 818H746V816H425V818ZM746 818C750.971 818 755 813.971 755 809H753C753 812.866 749.866 816 746 816V818ZM755 809V427H753V809H755ZM746 436C750.971 436 755 431.971 755 427H753C753 430.866 749.866 434 746 434V436ZM691 436L746 436L746 434L691 434L691 436ZM427 381C430.866 381 434 384.134 434 388H436C436 383.029 431.971 379 427 379V381ZM427 381C430.866 381 434 384.134 434 388L436 388C436 383.029 431.971 379 427 379V381ZM583.944 411.042C582.664 411.519 580.019 412.9 577.699 414.47C576.535 415.258 575.411 416.121 574.565 416.974C574.143 417.401 573.766 417.848 573.49 418.304C573.219 418.751 573 419.279 573 419.848H575C575 419.787 575.029 419.624 575.2 419.34C575.367 419.066 575.628 418.743 575.986 418.382C576.701 417.661 577.706 416.88 578.82 416.126C581.056 414.612 583.557 413.32 584.642 412.916L583.944 411.042ZM684 388C684 383.029 679.971 379 675 379V381C678.866 381 682 384.134 682 388H684ZM317 597C317 601.971 321.029 606 326 606V604C322.134 604 319 600.866 319 597H317ZM671.573 379C670.501 379 669.437 379.192 668.431 379.566L669.13 381.44C669.911 381.149 670.739 381 671.573 381V379ZM326 523C321.029 523 317 527.029 317 532H319C319 528.134 322.134 525 326 525V523Z" fill="url(#paint7_linear_262_1033)" mask="url(#path-7-inside-4_262_1033)"/>
<defs>
<linearGradient id="paint0_linear_262_1033" x1="218" y1="0" x2="218" y2="437" gradientUnits="userSpaceOnUse">
<stop stop-color="#24393E"/>
<stop offset="1" stop-color="#0F181A"/>
</linearGradient>
<linearGradient id="paint1_linear_262_1033" x1="105.695" y1="1.15262e-06" x2="337.754" y2="436.955" gradientUnits="userSpaceOnUse">
<stop stop-color="white" stop-opacity="0.2"/>
<stop offset="1" stop-color="white" stop-opacity="0.1"/>
</linearGradient>
<linearGradient id="paint2_linear_262_1033" x1="536" y1="0" x2="536" y2="437" gradientUnits="userSpaceOnUse">
<stop stop-color="#242E3E"/>
<stop offset="1" stop-color="#0F131A"/>
</linearGradient>
<linearGradient id="paint3_linear_262_1033" x1="423.695" y1="1.15262e-06" x2="655.754" y2="436.955" gradientUnits="userSpaceOnUse">
<stop stop-color="white" stop-opacity="0.2"/>
<stop offset="1" stop-color="white" stop-opacity="0.1"/>
</linearGradient>
<linearGradient id="paint4_linear_262_1033" x1="218" y1="380" x2="218" y2="817" gradientUnits="userSpaceOnUse">
<stop stop-color="#3E2D24"/>
<stop offset="1" stop-color="#1A130F"/>
</linearGradient>
<linearGradient id="paint5_linear_262_1033" x1="105.695" y1="380" x2="337.754" y2="816.955" gradientUnits="userSpaceOnUse">
<stop stop-color="white" stop-opacity="0.2"/>
<stop offset="1" stop-color="white" stop-opacity="0.1"/>
</linearGradient>
<linearGradient id="paint6_linear_262_1033" x1="536" y1="380" x2="536" y2="817" gradientUnits="userSpaceOnUse">
<stop stop-color="#37243E"/>
<stop offset="1" stop-color="#170F1A"/>
</linearGradient>
<linearGradient id="paint7_linear_262_1033" x1="423.695" y1="380" x2="655.754" y2="816.955" gradientUnits="userSpaceOnUse">
<stop stop-color="white" stop-opacity="0.2"/>
<stop offset="1" stop-color="white" stop-opacity="0.1"/>
</linearGradient>
</defs>
</svg>
